SplineFontDB: 3.0
FontName: Rokkitt-Light-Italic
FullName: Rokkitt Light Italic
FamilyName: Rokkitt
Weight: Light
Copyright: Copyright (c) 2011 by vernon adams. All rights reserved.
Version: 001.001
ItalicAngle: -11.7
UnderlinePosition: -50
UnderlineWidth: 50
Ascent: 1536
Descent: 512
UFOAscent: 1536
UFODescent: -512
LayerCount: 2
Layer: 0 0 "Back"  1
Layer: 1 0 "Fore"  0
FSType: 0
OS2Version: 0
OS2_WeightWidthSlopeOnly: 0
OS2_UseTypoMetrics: 0
CreationTime: 1339171536
ModificationTime: 1339197444
PfmFamily: 17
TTFWeight: 300
TTFWidth: 5
LineGap: 0
VLineGap: 0
OS2TypoAscent: 1789
OS2TypoAOffset: 0
OS2TypoDescent: -439
OS2TypoDOffset: 0
OS2TypoLinegap: 0
OS2WinAscent: 1789
OS2WinAOffset: 0
OS2WinDescent: 439
OS2WinDOffset: 0
HheadAscent: 0
HheadAOffset: 1
HheadDescent: 0
HheadDOffset: 1
OS2Vendor: 'newt'
Lookup: 4 0 1 "ligaStandardLigatureslookup3"  {"ligaStandardLigatureslookup3 subtable"  } ['liga' ('latn' <'dflt' > 'grek' <'dflt' > 'DFLT' <'dflt' 'LAT ' > ) ]
Lookup: 4 0 0 "fracDiagonalFractionslookup2"  {"fracDiagonalFractionslookup2 subtable"  } ['frac' ('latn' <'dflt' > 'DFLT' <'dflt' 'LAT ' > ) ]
Lookup: 260 0 0 "'mark' Mark Positioning lookup 2"  {"'mark' Mark Positioning lookup 2-1"  } ['mark' ('DFLT' <'LAT ' 'dflt' > 'grek' <'dflt' > 'latn' <'dflt' > ) ]
Lookup: 258 0 0 "'kern' Horizontal Kerning lookup 1"  {"'kern' Horizontal Kerning lookup 1 per glyph data 0"  "'kern' Horizontal Kerning lookup 1 kerning class 1"  } ['kern' ('DFLT' <'dflt' > 'latn' <'dflt' > ) ]
MarkAttachClasses: 1
DEI: 91125
KernClass2: 36 33 "'kern' Horizontal Kerning lookup 1 kerning class 1" 
 65 A Aacute Abreve Acircumflex Adieresis Agrave Aogonek Aring Atilde
 1 B
 1 C
 80 D Dcaron Eth O Oacute Ocircumflex Odieresis Ograve Ohungarumlaut Oslash Otilde Q
 1 F
 1 G
 26 H M N Nacute Ncaron Ntilde
 1 J
 1 K
 1 L
 1 P
 28 R Racute Rcaron Rcommaaccent
 24 S Sacute Scaron Scedilla
 8 T Tcaron
 73 U Uacute Ucircumflex Udieresis Ugrave Uhungarumlaut Umacron Uogonek Uring
 1 V
 1 W

StartChar: A
Encoding: 33 65 1
Width: 1443
VWidth: 0
GlyphClass: 2
Flags: HW
PickledData: "(dp1
S'com.typemytype.robofont.layerData'
p2
(dp3
s."
AnchorPoint: "bot" 1091 0 basechar 0
AnchorPoint: "top" 863 1311 basechar 0
LayerCount: 2
Fore
SplineSet
455 512 m 1
 846 1230 l 1
 962 512 l 1
 455 512 l 1
-40 0 m 1
 340 0 l 1
 355 62 l 1
 201 62 l 1
 421 451 l 1
 972 451 l 1
 1039 62 l 1
 890 62 l 1
 877 0 l 1
 1257 0 l 1
 1272 62 l 1
 1125 62 l 1
 918 1311 l 1
 814 1311 l 1
 116 62 l 1
 -27 62 l 1
 -40 0 l 1
EndSplineSet
EndChar

StartChar: AE
Encoding: 132 198 2
Width: 2099
VWidth: 0
GlyphClass: 2
Flags: HW
LayerCount: 2
Fore
SplineSet
1281 1200 m 1
 679 586 l 1
 1127 586 l 1
 1281 1200 l 1
2052 1211 m 1
 1361 1211 l 1
 1238 693 l 1
 1688 693 l 1
 1727 857 l 1
 1797 857 l 1
 1697 441 l 1
 1627 441 l 1
 1669 620 l 1
 1220 620 l 1
 1089 72 l 1
 1800 72 l 1
 1876 392 l 1
 1957 392 l 1
 1864 0 l 1
 795 0 l 1
 834 64 l 1
 998 64 l 1
 1112 523 l 1
 618 523 l 1
 173 64 l 1
 337 64 l 1
 297 0 l 1
 -121 0 l 1
 -81 64 l 1
 82 64 l 1
 1220 1218 l 1
 1056 1218 l 1
 1097 1284 l 1
 2149 1284 l 1
 2055 892 l 1
 1974 892 l 1
 2052 1211 l 1
EndSplineSet
EndChar

StartChar: B
Encoding: 34 66 11
Width: 1175
VWidth: 0
GlyphClass: 2
Flags: HW
PickledData: "(dp1
S'com.typemytype.robofont.layerData'
p2
(dp3
s."
AnchorPoint: "top" 669 1311 basechar 0
LayerCount: 2
Fore
SplineSet
371 715 m 1
 596 715 l 2
 810 715 970 896 970 1048 c 0
 970 1156 886 1248 691 1248 c 2
 484 1248 l 1
 371 715 l 1
231 62 m 1
 538 62 l 2
 780 62 924 234 924 389 c 0
 924 513 844 653 652 653 c 2
 358 653 l 1
 231 62 l 1
692 1311 m 2
 942 1311 1054 1185 1054 1045 c 0
 1054 879 915 743 748 697 c 1
 945 661 1012 514 1012 398 c 0
 1012 208 841 0 522 0 c 2
 -42 0 l 1
 -30 62 l 1
 141 62 l 1
 393 1248 l 1
 196 1248 l 1
 209 1311 l 1
 692 1311 l 2
EndSplineSet
EndChar

StartChar: C
Encoding: 35 67 12
Width: 1489
VWidth: 0
GlyphClass: 2
Flags: HW
PickledData: "(dp1
S'com.typemytype.robofont.layerData'
p2
(dp3
s."
AnchorPoint: "bot" 773 0 basechar 0
AnchorPoint: "top" 913 1311 basechar 0
LayerCount: 2
Fore
SplineSet
1301 1006 m 1
 1247 991 l 1
 1215 1166 1090 1265 914 1265 c 0
 538 1265 338 899 338 562 c 0
 338 276 489 48 800 48 c 0
 969 48 1127 150 1207 292 c 1
 1274 253 l 1
 1167 75 992 -20 781 -20 c 0
 433 -20 251 252 251 571 c 0
 251 952 502 1332 912 1332 c 0
 1044 1332 1183 1276 1251 1158 c 1
 1273 1311 l 1
 1343 1311 l 1
 1301 1006 l 1
EndSplineSet
EndChar

StartChar: D
Encoding: 36 68 18
Width: 1313
VWidth: 0
GlyphClass: 2
Flags: HW
PickledData: "(dp1
S'com.typemytype.robofont.layerData'
p2
(dp3
s."
AnchorPoint: "top" 733 1311 basechar 0
LayerCount: 2
Fore
SplineSet
231 62 m 1
 568 62 l 2
 956 62 1138 448 1138 762 c 0
 1138 1004 1019 1248 704 1248 c 2
 479 1248 l 1
 231 62 l 1
569 0 m 2
 -41 0 l 1
 -30 62 l 1
 148 62 l 1
 393 1248 l 1
 199 1248 l 1
 209 1311 l 1
 703 1311 l 2
 1027 1311 1222 1060 1222 764 c 0
 1222 370 983 0 569 0 c 2
EndSplineSet
EndChar

StartChar: Dcroat
Encoding: 206 272 20
Width: 1270
VWidth: 0
GlyphClass: 2
Flags: HW
LayerCount: 2
Fore
SplineSet
565 0 m 2
 -45 0 l 1
 -34 62 l 1
 144 62 l 1
 268 667 l 1
 113 667 l 1
 129 731 l 1
 281 731 l 1
 382 1220 l 1
 189 1220 l 1
 199 1283 l 1
 693 1283 l 2
 1016 1283 1215 1042 1215 746 c 0
 1215 353 978 0 565 0 c 2
571 731 m 1
 554 667 l 1
 353 667 l 1
 227 62 l 1
 564 62 l 2
 952 62 1131 429 1131 744 c 0
 1131 985 1009 1220 694 1220 c 2
 469 1220 l 1
 367 731 l 1
 571 731 l 1
EndSplineSet
EndChar

StartChar: E
Encoding: 37 69 22
Width: 1111
VWidth: 0
GlyphClass: 2
Flags: HW
PickledData: "(dp1
S'com.typemytype.robofont.layerData'
p2
(dp3
s."
AnchorPoint: "bot" 773 0 basechar 0
AnchorPoint: "top" 792 1311 basechar 0
LayerCount: 2
Fore
SplineSet
890 0 m 1
 951 314 l 1
 867 314 l 1
 818 62 l 1
 250 62 l 1
 373 646 l 1
 812 646 l 1
 781 486 l 1
 866 486 l 1
 937 840 l 1
 852 840 l 1
 825 708 l 1
 386 708 l 1
 499 1248 l 1
 1008 1248 l 1
 964 1039 l 1
 1050 1039 l 1
 1106 1311 l 1
 229 1311 l 1
 218 1248 l 1
 412 1248 l 1
 167 62 l 1
 -11 62 l 1
 -22 0 l 1
 890 0 l 1
EndSplineSet
EndChar

StartChar: Eth
Encoding: 142 208 29
Width: 1270
VWidth: 0
GlyphClass: 2
Flags: HW
LayerCount: 2
Fore
SplineSet
565 0 m 2
 -45 0 l 1
 -34 62 l 1
 144 62 l 1
 268 667 l 1
 113 667 l 1
 129 731 l 1
 281 731 l 1
 382 1220 l 1
 189 1220 l 1
 199 1283 l 1
 693 1283 l 2
 1016 1283 1215 1042 1215 746 c 0
 1215 353 978 0 565 0 c 2
571 731 m 1
 554 667 l 1
 353 667 l 1
 227 62 l 1
 564 62 l 2
 952 62 1131 429 1131 744 c 0
 1131 985 1009 1220 694 1220 c 2
 469 1220 l 1
 367 731 l 1
 571 731 l 1
EndSplineSet
EndChar

StartChar: Euro
Encoding: 411 8364 30
Width: 1260
VWidth: 0
GlyphClass: 2
Flags: HW
LayerCount: 2
Fore
SplineSet
912 826 m 1
 899 762 l 1
 245 762 l 1
 214 688 200 605 194 538 c 1
 851 538 l 1
 837 473 l 1
 192 473 l 1
 196 198 379 49 626 49 c 0
 759 49 909 92 1060 181 c 1
 1082 114 l 1
 924 23 757 -22 606 -22 c 0
 318 -22 102 140 102 473 c 1
 -90 473 l 1
 -77 538 l 1
 105 538 l 1
 114 606 126 686 156 762 c 1
 -29 762 l 1
 -14 826 l 1
 183 826 l 1
 320 1113 615 1306 879 1306 c 0
 1014 1306 1141 1256 1236 1143 c 1
 1266 1287 l 1
 1344 1287 l 1
 1294 1048 l 1
 1226 1034 l 1
 1132 1168 1001 1226 863 1226 c 0
 637 1226 395 1066 272 826 c 1
 912 826 l 1
EndSplineSet
EndChar

StartChar: F
Encoding: 38 70 31
Width: 1023
VWidth: 0
GlyphClass: 2
Flags: HW
PickledData: "(dp1
S'com.typemytype.robofont.layerData'
p2
(dp3
s."
LayerCount: 2
Fore
SplineSet
-41 0 m 1
 400 0 l 1
 412 62 l 1
 230 62 l 1
 356 659 l 1
 781 659 l 1
 750 505 l 1
 835 505 l 1
 906 859 l 1
 821 859 l 1
 794 720 l 1
 368 720 l 1
 479 1248 l 1
 988 1248 l 1
 945 1039 l 1
 1029 1039 l 1
 1087 1311 l 1
 209 1311 l 1
 199 1248 l 1
 393 1248 l 1
 146 62 l 1
 -30 62 l 1
 -41 0 l 1
EndSplineSet
EndChar

StartChar: G
Encoding: 39 71 32
Width: 1510
VWidth: 0
GlyphClass: 2
Flags: HW
PickledData: "(dp1
S'com.typemytype.robofont.layerData'
p2
(dp3
s."
AnchorPoint: "bot" 773 0 basechar 0
AnchorPoint: "top" 933 1311 basechar 0
LayerCount: 2
Fore
SplineSet
1321 1007 m 1
 1266 988 l 1
 1232 1165 1100 1265 914 1265 c 0
 538 1265 338 899 338 562 c 0
 338 276 489 48 800 48 c 0
 974 48 1213 146 1256 543 c 1
 944 543 l 1
 944 605 l 1
 1341 605 l 1
 1334 543 l 1
 1268 66 999 -20 781 -20 c 0
 433 -20 251 252 251 571 c 0
 251 952 502 1332 912 1332 c 0
 1052 1332 1198 1276 1270 1158 c 1
 1293 1311 l 1
 1363 1311 l 1
 1321 1007 l 1
EndSplineSet
EndChar

StartChar: H
Encoding: 40 72 33
Width: 1611
VWidth: 0
GlyphClass: 2
Flags: HW
PickledData: "(dp1
S'com.typemytype.robofont.layerData'
p2
(dp3
s."
AnchorPoint: "top" 933 1311 basechar 0
LayerCount: 2
Fore
SplineSet
1169 1248 m 1
 1181 1311 l 1
 1651 1311 l 1
 1639 1248 l 1
 1450 1248 l 1
 1204 62 l 1
 1414 62 l 1
 1402 0 l 1
 932 0 l 1
 942 62 l 1
 1119 62 l 1
 1232 636 l 1
 352 636 l 1
 231 62 l 1
 442 62 l 1
 430 0 l 1
 -40 0 l 1
 -29 62 l 1
 148 62 l 1
 393 1248 l 1
 198 1248 l 1
 209 1311 l 1
 679 1311 l 1
 669 1248 l 1
 479 1248 l 1
 365 699 l 1
 1244 699 l 1
 1351 1248 l 1
 1169 1248 l 1
EndSplineSet
EndChar

StartChar: I
Encoding: 41 73 34
Width: 651
VWidth: 0
GlyphClass: 2
Flags: HW
PickledData: "(dp1
S'com.typemytype.robofont.layerData'
p2
(dp3
s."
AnchorPoint: "bot" 193 0 basechar 0
AnchorPoint: "top" 468 1311 basechar 0
LayerCount: 2
Fore
SplineSet
209 1248 m 1
 219 1311 l 1
 690 1311 l 1
 679 1248 l 1
 489 1248 l 1
 241 62 l 1
 450 62 l 1
 439 0 l 1
 -31 0 l 1
 -20 62 l 1
 158 62 l 1
 403 1248 l 1
 209 1248 l 1
EndSplineSet
EndChar

StartChar: J
Encoding: 42 74 42
Width: 632
VWidth: 0
GlyphClass: 2
Flags: HW
PickledData: "(dp1
S'com.typemytype.robofont.layerData'
p2
(dp3
s."
AnchorPoint: "top" 493 1311 basechar 0
LayerCount: 2
Fore
SplineSet
200 103 m 2
 442 1248 l 1
 298 1248 l 1
 312 1311 l 1
 686 1311 l 1
 673 1248 l 1
 528 1248 l 1
 285 104 l 2
 249 -64 157 -105 27 -105 c 0
 25 -105 24 -105 22 -105 c 2
 -89 -104 l 1
 -81 -43 l 1
 35 -43 l 2
 134 -43 177 -3 200 103 c 2
EndSplineSet
EndChar

StartChar: K
Encoding: 43 75 44
Width: 1330
VWidth: 0
GlyphClass: 2
Flags: HW
PickledData: "(dp1
S'com.typemytype.robofont.layerData'
p2
(dp3
s."
AnchorPoint: "top" 763 1311 basechar 0
LayerCount: 2
Fore
SplineSet
480 1248 m 1
 358 666 l 1
 1004 1248 l 1
 873 1248 l 1
 887 1311 l 1
 1295 1311 l 1
 1283 1248 l 1
 1100 1248 l 1
 443 650 l 1
 962 62 l 1
 1173 62 l 1
 1161 0 l 1
 710 0 l 1
 721 62 l 1
 863 62 l 1
 352 639 l 1
 231 62 l 1
 442 62 l 1
 430 0 l 1
 -40 0 l 1
 -29 62 l 1
 148 62 l 1
 393 1248 l 1
 198 1248 l 1
 209 1311 l 1
 679 1311 l 1
 669 1248 l 1
 480 1248 l 1
EndSplineSet
EndChar

StartChar: L
Encoding: 44 76 45
Width: 1144
VWidth: 0
GlyphClass: 2
Flags: HW
PickledData: "(dp1
S'com.typemytype.robofont.layerData'
p2
(dp3
s."
AnchorPoint: "top" 863 1311 basechar 0
LayerCount: 2
Fore
SplineSet
910 334 m 1
 994 334 l 1
 972 222 950 110 927 0 c 1
 -22 0 l 1
 -11 62 l 1
 167 62 l 1
 412 1248 l 1
 218 1248 l 1
 229 1311 l 1
 699 1311 l 1
 688 1248 l 1
 498 1248 l 1
 250 62 l 1
 854 62 l 1
 910 334 l 1
EndSplineSet
EndChar

StartChar: Lslash
Encoding: 255 321 49
Width: 1081
VWidth: 0
GlyphClass: 2
Flags: HW
LayerCount: 2
Fore
SplineSet
879 334 m 1
 964 334 l 1
 896 0 l 1
 580 0 263 0 -53 0 c 1
 -42 62 l 1
 136 62 l 1
 268 705 l 1
 92 663 l 1
 107 725 l 1
 281 767 l 1
 381 1248 l 1
 187 1248 l 1
 198 1311 l 1
 668 1311 l 1
 657 1248 l 1
 467 1248 l 1
 371 789 l 1
 641 855 l 1
 629 793 l 1
 358 727 l 1
 219 62 l 1
 823 62 l 1
 879 334 l 1
EndSplineSet
EndChar

StartChar: M
Encoding: 45 77 50
Width: 1875
VWidth: 0
GlyphClass: 2
Flags: HW
PickledData: "(dp1
S'com.typemytype.robofont.layerData'
p2
(dp3
s."
AnchorPoint: "top" 1123 1311 basechar 0
LayerCount: 2
Fore
SplineSet
1791 1312 m 1
 1780 1249 l 1
 1636 1249 l 1
 1531 62 l 1
 1707 62 l 1
 1686 0 l 1
 1257 0 l 1
 1278 62 l 1
 1447 62 l 1
 1554 1184 l 1
 857 0 l 1
 810 0 l 1
 667 1170 l 1
 218 62 l 1
 429 62 l 1
 417 0 l 1
 -53 0 l 1
 -41 62 l 1
 135 62 l 1
 625 1249 l 1
 430 1249 l 1
 441 1312 l 1
 727 1312 l 1
 865 159 l 1
 1544 1312 l 1
 1791 1312 l 1
EndSplineSet
EndChar

StartChar: N
Encoding: 46 78 51
Width: 1509
VWidth: 0
GlyphClass: 2
Flags: HW
PickledData: "(dp1
S'com.typemytype.robofont.layerData'
p2
(dp3
s."
AnchorPoint: "top" 863 1311 basechar 0
LayerCount: 2
Fore
SplineSet
1101 1249 m 1
 1112 1312 l 1
 1579 1312 l 1
 1567 1249 l 1
 1370 1249 l 1
 1116 0 l 1
 1036 0 l 1
 482 1192 l 1
 245 62 l 1
 456 62 l 1
 444 0 l 1
 -26 0 l 1
 -15 62 l 1
 169 62 l 1
 415 1249 l 1
 212 1249 l 1
 223 1312 l 1
 509 1312 l 1
 1061 126 l 1
 1284 1249 l 1
 1101 1249 l 1
EndSplineSet
EndChar

StartChar: O
Encoding: 47 79 56
Width: 1622
VWidth: 0
GlyphClass: 2
Flags: HW
PickledData: "(dp1
S'com.typemytype.robofont.layerData'
p2
(dp3
s."
AnchorPoint: "bot" 803 0 basechar 0
AnchorPoint: "top" 913 1311 basechar 0
LayerCount: 2
Fore
SplineSet
1349 733 m 4
 1349 1004 1227 1263 912 1263 c 4
 536 1263 338 905 338 564 c 4
 338 331 465 48 792 48 c 4
 1172 48 1349 410 1349 733 c 4
251 566 m 0
 251 970 503 1332 910 1332 c 4
 1234 1332 1433 1064 1433 735 c 4
 1433 333 1201 -20 794 -20 c 0
 436 -20 251 266 251 566 c 0
EndSplineSet
EndChar

StartChar: OE
Encoding: 272 338 57
Width: 1954
VWidth: 0
GlyphClass: 2
Flags: HW
LayerCount: 2
Fore
SplineSet
912 72 m 1
 1154 1205 l 1
 873 1205 l 2
 423 1205 159 822 159 506 c 0
 159 270 303 72 631 72 c 2
 912 72 l 1
1905 1211 m 1
 1240 1211 l 1
 1130 693 l 1
 1580 693 l 1
 1616 857 l 1
 1685 857 l 1
 1597 441 l 1
 1527 441 l 1
 1565 620 l 1
 1114 620 l 1
 996 72 l 1
 1685 72 l 1
 1753 392 l 1
 1833 392 l 1
 1751 0 l 1
 617 0 l 2
 240 0 70 229 70 497 c 0
 70 856 380 1284 889 1284 c 2
 2000 1284 l 1
 1918 892 l 1
 1837 892 l 1
 1905 1211 l 1
EndSplineSet
EndChar

StartChar: Oslash
Encoding: 150 216 63
Width: 1622
VWidth: 0
GlyphClass: 2
Flags: HW
LayerCount: 2
Fore
SplineSet
1319 1421 m 5
 1368 1397 l 5
 374 -143 l 5
 325 -117 l 5
 1319 1421 l 5
EndSplineSet
Refer: 56 79 N 1 0 0 1 0 0 2
EndChar

StartChar: P
Encoding: 48 80 65
Width: 1193
VWidth: 0
GlyphClass: 2
Flags: HW
PickledData: "(dp1
S'com.typemytype.robofont.layerData'
p2
(dp3
s."
AnchorPoint: "top" 783 1311 basechar 0
LayerCount: 2
Fore
SplineSet
653 539 m 2
 354 539 l 1
 252 62 l 1
 464 62 l 1
 451 0 l 1
 -21 0 l 1
 -9 62 l 1
 162 62 l 1
 414 1249 l 1
 217 1249 l 1
 230 1312 l 1
 787 1312 l 2
 1043 1312 1155 1165 1155 998 c 0
 1155 785 967 539 653 539 c 2
368 602 m 1
 670 602 l 2
 918 602 1067 813 1067 991 c 0
 1067 1129 981 1249 786 1249 c 2
 505 1249 l 1
 368 602 l 1
EndSplineSet
EndChar

StartChar: Q
Encoding: 49 81 66
Width: 1622
VWidth: 0
GlyphClass: 2
Flags: HW
PickledData: "(dp1
S'com.typemytype.robofont.layerData'
p2
(dp3
s."
LayerCount: 2
Fore
SplineSet
792 48 m 0
 465 48 338 331 338 564 c 0
 338 905 536 1263 912 1263 c 0
 1227 1263 1349 1004 1349 733 c 0
 1349 410 1172 48 792 48 c 0
1038 -210 m 0
 1086 -210 1137 -201 1197 -183 c 1
 1188 -115 l 1
 1134 -133 1088 -142 1044 -142 c 0
 956 -142 879 -106 791 -20 c 1
 794 -20 l 2
 1201 -20 1433 333 1433 735 c 0
 1433 1064 1234 1332 910 1332 c 0
 503 1332 251 970 251 566 c 0
 251 314 382 71 637 0 c 1
 780 -123 885 -210 1038 -210 c 0
EndSplineSet
EndChar

StartChar: R
Encoding: 50 82 67
Width: 1288
VWidth: 0
GlyphClass: 2
Flags: HW
PickledData: "(dp1
S'com.typemytype.robofont.layerData'
p2
(dp3
s."
AnchorPoint: "top" 753 1311 basechar 0
LayerCount: 2
Fore
SplineSet
372 716 m 1
 706 716 l 2
 922 716 1058 885 1058 1034 c 0
 1058 1147 977 1249 797 1249 c 2
 485 1249 l 1
 372 716 l 1
688 654 m 2
 585 654 l 1
 897 62 l 1
 1107 62 l 1
 1099 0 l 1
 833 0 l 1
 499 654 l 1
 359 654 l 1
 232 62 l 1
 444 62 l 1
 432 0 l 1
 -40 0 l 1
 -29 62 l 1
 142 62 l 1
 394 1249 l 1
 197 1249 l 1
 210 1312 l 1
 798 1312 l 2
 1039 1312 1146 1184 1146 1041 c 0
 1146 858 972 654 688 654 c 2
EndSplineSet
EndChar

StartChar: S
Encoding: 51 83 71
Width: 1047
VWidth: 0
GlyphClass: 2
Flags: HW
PickledData: "(dp1
S'com.typemytype.robofont.layerData'
p2
(dp3
s."
AnchorPoint: "bot" 453 0 basechar 0
AnchorPoint: "top" 633 1311 basechar 0
LayerCount: 2
Fore
SplineSet
249 1007 m 0
 249 704 765 617 765 311 c 0
 765 107 605 48 453 48 c 0
 317 48 191 97 191 206 c 0
 191 213 191 220 192 227 c 1
 206 313 l 1
 133 298 l 1
 85 0 l 1
 157 0 l 1
 171 88 l 1
 171 88 226 -20 441 -20 c 0
 667 -20 856 101 856 310 c 0
 856 486 727 595 598 694 c 0
 469 793 340 882 340 1016 c 0
 340 1177 457 1265 622 1265 c 0
 747 1265 848 1191 848 1112 c 0
 848 1108 848 1104 847 1100 c 1
 841 1045 l 1
 908 1065 l 1
 933 1311 l 1
 869 1311 l 1
 863 1233 l 1
 836 1292 707 1332 627 1332 c 0
 421 1332 249 1219 249 1007 c 0
EndSplineSet
EndChar

StartChar: T
Encoding: 52 84 75
Width: 1177
VWidth: 0
GlyphClass: 2
Flags: HW
PickledData: "(dp1
S'com.typemytype.robofont.layerData'
p2
(dp3
s."
AnchorPoint: "bot" 463 0 basechar 0
AnchorPoint: "top" 733 1311 basechar 0
LayerCount: 2
Fore
SplineSet
252 1312 m 1
 1228 1312 l 1
 1172 1040 l 1
 1086 1040 l 1
 1130 1249 l 1
 765 1249 l 1
 517 62 l 1
 727 62 l 1
 716 0 l 1
 246 0 l 1
 257 62 l 1
 434 62 l 1
 678 1249 l 1
 324 1249 l 1
 280 1040 l 1
 195 1040 l 1
 252 1312 l 1
EndSplineSet
EndChar

StartChar: Thorn
Encoding: 156 222 78
Width: 1116
VWidth: 0
GlyphClass: 2
Flags: HW
LayerCount: 2
Fore
SplineSet
407 1019 m 1
 298 506 l 1
 712 506 l 2
 912 506 1044 680 1044 826 c 0
 1044 930 975 1019 821 1019 c 2
 407 1019 l 1
449 1218 m 1
 420 1084 l 1
 835 1084 l 2
 1039 1084 1127 969 1127 837 c 0
 1127 657 958 438 698 438 c 2
 284 438 l 1
 204 64 l 1
 381 64 l 1
 367 0 l 1
 -53 0 l 1
 -40 64 l 1
 120 64 l 1
 364 1218 l 1
 207 1218 l 1
 222 1284 l 1
 624 1284 l 1
 610 1218 l 1
 449 1218 l 1
EndSplineSet
EndChar

StartChar: U
Encoding: 53 85 79
Width: 1462
VWidth: 0
GlyphClass: 2
Flags: HW
PickledData: "(dp1
S'com.typemytype.robofont.layerData'
p2
(dp3
s."
AnchorPoint: "bot" 663 0 basechar 0
AnchorPoint: "top" 863 1311 basechar 0
LayerCount: 2
Fore
SplineSet
1360 1249 m 1
 1183 404 l 1
 1114 108 869 -20 642 -20 c 0
 401 -20 194 113 194 331 c 0
 194 358 197 386 204 416 c 1
 374 1249 l 1
 179 1249 l 1
 189 1311 l 1
 661 1311 l 1
 649 1249 l 1
 461 1249 l 1
 285 414 l 1
 279 388 276 364 276 340 c 0
 276 160 450 48 645 48 c 0
 833 48 1041 154 1094 404 c 2
 1274 1249 l 1
 1080 1249 l 1
 1089 1311 l 1
 1541 1311 l 1
 1531 1249 l 1
 1360 1249 l 1
EndSplineSet
EndChar

StartChar: V
Encoding: 54 86 88
Width: 1475
VWidth: 0
GlyphClass: 2
Flags: HW
PickledData: "(dp1
S'com.typemytype.robofont.layerData'
p2
(dp3
s."
LayerCount: 2
Fore
SplineSet
535 0 m 1
 640 0 l 1
 1372 1248 l 1
 1528 1248 l 1
 1541 1311 l 1
 1146 1311 l 1
 1133 1248 l 1
 1269 1248 l 1
 608 83 l 1
 416 1248 l 1
 573 1248 l 1
 586 1311 l 1
 190 1311 l 1
 177 1248 l 1
 326 1248 l 1
 535 0 l 1
EndSplineSet
EndChar

StartChar: W
Encoding: 55 87 89
Width: 1931
VWidth: 0
GlyphClass: 2
Flags: HW
PickledData: "(dp1
S'com.typemytype.robofont.layerData'
p2
(dp3
s."
AnchorPoint: "top" 1093 1311 basechar 0
LayerCount: 2
Fore
SplineSet
2004 1248 m 1
 1849 1248 l 1
 1226 0 l 1
 1121 0 l 1
 1051 1086 l 1
 523 0 l 1
 418 0 l 1
 342 1248 l 1
 194 1248 l 1
 209 1311 l 1
 606 1311 l 1
 591 1248 l 1
 435 1248 l 1
 493 105 l 1
 1071 1311 l 1
 1116 1311 l 1
 1196 105 l 1
 1745 1248 l 1
 1610 1248 l 1
 1625 1311 l 1
 2019 1311 l 1
 2004 1248 l 1
EndSplineSet
EndChar

StartChar: X
Encoding: 56 88 90
Width: 1381
VWidth: 0
GlyphClass: 2
Flags: HW
PickledData: "(dp1
S'com.typemytype.robofont.layerData'
p2
(dp3
s."
LayerCount: 2
Fore
SplineSet
201 1248 m 1
 227 1311 l 1
 698 1311 l 1
 671 1248 l 1
 513 1248 l 1
 706 756 l 1
 1074 1248 l 1
 874 1248 l 1
 897 1311 l 1
 1368 1311 l 1
 1345 1248 l 1
 1180 1248 l 1
 740 669 l 1
 977 62 l 1
 1186 62 l 1
 1171 0 l 1
 701 0 l 1
 716 62 l 1
 893 62 l 1
 683 602 l 1
 274 62 l 1
 489 62 l 1
 464 0 l 1
 -5 0 l 1
 20 62 l 1
 170 62 l 1
 647 691 l 1
 427 1248 l 1
 201 1248 l 1
EndSplineSet
EndChar

StartChar: Y
Encoding: 57 89 91
Width: 1334
VWidth: 0
GlyphClass: 2
Flags: HW
PickledData: "(dp1
S'com.typemytype.robofont.layerData'
p2
(dp3
s."
AnchorPoint: "top" 806 1311 basechar 0
LayerCount: 2
Fore
SplineSet
1382 1248 m 1
 1226 1248 l 1
 698 519 l 1
 603 62 l 1
 812 62 l 1
 802 0 l 1
 331 0 l 1
 341 62 l 1
 520 62 l 1
 613 526 l 1
 345 1248 l 1
 197 1248 l 1
 208 1311 l 1
 604 1311 l 1
 593 1248 l 1
 441 1248 l 1
 673 601 l 1
 1124 1248 l 1
 988 1248 l 1
 1001 1311 l 1
 1394 1311 l 1
 1382 1248 l 1
EndSplineSet
EndChar

StartChar: Z
Encoding: 58 90 94
Width: 1156
VWidth: 0
GlyphClass: 2
Flags: HW
PickledData: "(dp1
S'com.typemytype.robofont.layerData'
p2
(dp3
s."
AnchorPoint: "top" 737 1311 basechar 0
LayerCount: 2
Fore
SplineSet
924 334 m 1
 1008 334 l 1
 941 0 l 1
 72 0 l 1
 52 36 l 1
 1009 1248 l 1
 383 1248 l 1
 327 976 l 1
 242 976 l 1
 311 1311 l 1
 1121 1311 l 1
 1137 1283 l 1
 175 62 l 1
 868 62 l 1
 924 334 l 1
EndSplineSet
EndChar

StartChar: a
Encoding: 65 97 98
Width: 1064
VWidth: 0
GlyphClass: 2
Flags: HW
PickledData: "(dp1
S'com.typemytype.robofont.layerData'
p2
(dp3
S'b'
(dp4
S'name'
p5
S'a'
sS'lib'
p6
(dp7
sS'unicodes'
p8
(tsS'width'
p9
F1024.1381931175474
sS'contours'
p10
((dp11
S'points'
p12
((dp13
S'segmentType'
p14
S'line'
p15
sS'x'
F214.53045567752847
sS'smooth'
p16
I00
sS'y'
F0
s(dp17
g14
S'line'
p18
sS'x'
F365.53045567752849
sg16
I00
sS'y'
F770
s(dp19
g14
S'line'
p20
sS'x'
F202.53045567752847
sg16
I00
sS'y'
F770
s(dp21
g14
S'line'
p22
sS'x'
F215.53045567752847
sg16
I00
sS'y'
F828
s(dp23
g14
S'line'
p24
sS'x'
F458.53045567752849
sg16
I00
sS'y'
F828
s(dp25
g14
S'line'
p26
sS'x'
F416.53045567752849
sg16
I00
sS'y'
F669
s(dp27
S'y'
F782
sS'x'
F491.53045567752849
sg16
I00
s(dp28
S'y'
F851
sS'x'
F600.53045567752849
sg16
I00
s(dp29
g14
S'curve'
p30
sS'x'
F729.53045567752849
sg16
I01
sS'y'
F851
s(dp31
S'y'
F851
sS'x'
F917.32877500552854
sg16
I00
s(dp32
S'y'
F708.31034482799998
sS'x'
F969.25459360852847
sg16
I00
s(dp33
g14
S'curve'
p34
sS'x'
F933.53045567752849
sg16
I01
sS'y'
F545
s(dp35
g14
S'line'
p36
sS'x'
F852.07112146801569
sg16
I01
sS'y'
I202
s(dp37
S'y'
I156
sS'x'
F841.07112146801569
sg16
I00
s(dp38
S'y'
I52
sS'x'
F820.07112146801569
sg16
I00
s(dp39
g14
S'curve'
p40
sS'x'
F899.07112146801569
sg16
I01
sS'y'
I52
s(dp41
S'y'
I52
sS'x'
F966.07112146801569
sg16
I00
s(dp42
S'y'
I134
sS'x'
F1004.0711214680157
sg16
I00
s(dp43
g14
S'curve'
p44
sS'x'
F1024.0711214680157
sg16
I00
sS'y'
I210
s(dp45
g14
S'line'
p46
sS'x'
F1082.0711214680157
sg16
I00
sS'y'
I188
s(dp47
S'y'
I64
sS'x'
F1055.0711214680157
sg16
I00
s(dp48
S'y'
I-9
sS'x'
F989.07112146801569
sg16
I00
s(dp49
g14
S'curve'
p50
sS'x'
F889.07112146801569
sg16
I01
sS'y'
I-9
s(dp51
S'y'
I-9
sS'x'
F776.07112146801569
sg16
I00
s(dp52
S'y'
I101
sS'x'
F745.07112146801569
sg16
I00
s(dp53
g14
S'curve'
p54
sS'x'
F769.07112146801569
sg16
I01
sS'y'
I201
s(dp55
g14
S'line'
p56
sS'x'
F854.53045567752849
sg16
I01
sS'y'
F550
s(dp57
S'y'
F671.37037037000005
sS'x'
F883.82675197352853
sg16
I00
s(dp58
S'y'
F789
sS'x'
F857.12347893352853
sg16
I00
s(dp59
g14
S'curve'
p60
sS'x'
F716.53045567752849
sg16
I01
sS'y'
F789
s(dp61
S'y'
F789
sS'x'
F607.53045567752849
sg16
I00
s(dp62
S'y'
F688
sS'x'
F434.53045567752849
sg16
I00
s(dp63
g14
S'curve'
p64
sS'x'
F391.53045567752849
sg16
I01
sS'y'
F469
s(dp65
g14
S'line'
p66
sS'x'
F299.53045567752849
sg16
I00
sS'y'
F0
stp67
stp68
sS'components'
p69
(tsS'anchors'
p70
(tsss."
AnchorPoint: "bot" 814 0 basechar 0
AnchorPoint: "top" 603 828 basechar 0
LayerCount: 2
Fore
SplineSet
389 53 m 0
 256 53 220 117 220 185 c 0
 220 200 222 215 225 230 c 0
 260 407 419 410 539 410 c 0
 641 410 729 384 729 384 c 1
 682 158 l 1
 582 80 503 53 389 53 c 0
381 -18 m 0
 557 -18 652 58.466796875 682 106 c 1
 689 40 731 -9 810 -9 c 0
 910 -9 976 64 1003 188 c 1
 945 210 l 1
 925 134.481445312 887 53 820 53 c 4
 775 53 763 87.5205078125 763 125 c 0
 763 153 769 182 773 202 c 2
 850 593 l 2
 854 616 858 641 858 666 c 0
 858 757.515625 812 851 607 851 c 0
 473 851 377 815.02734375 289 746 c 1
 313 687 l 1
 385 747.389648438 466 786 591 786 c 0
 713 786 774 751.25390625 774 649 c 0
 774 627 771 603 766 575 c 2
 741 446 l 1
 663 462 633 475 556 475 c 0
 378 475 188 452 145 232 c 0
 142 214 140 197 140 180 c 0
 140 69.7734375 214 -18 381 -18 c 0
EndSplineSet
EndChar

StartChar: a.alt
Encoding: 65539 -1 99
Width: 1081
VWidth: 0
Flags: HW
PickledData: "(dp1
S'com.typemytype.robofont.layerData'
p2
(dp3
s."
LayerCount: 2
Fore
SplineSet
843 544 m 0
 843 662 775 789 635 789 c 0
 427 789 286 535 286 323 c 0
 286 172 354 43 518 43 c 0
 741 43 843 355 843 544 c 0
204 317 m 0
 204 562 376 851 627 851 c 0
 759 851 840 769 871 676 c 1
 903 828 l 1
 992 828 l 1
 861 163 l 1
 857 150 855 138 855 123 c 0
 855 88 868 52 915 52 c 0
 969 52 1007 95 1040 210 c 1
 1098 188 l 1
 1070 87 1015 -9 907 -9 c 0
 831 -9 786 45 786 116 c 0
 786 133 786 149 791 166 c 1
 781 143 704 -18 509 -18 c 0
 294 -18 204 138 204 317 c 0
EndSplineSet
EndChar

StartChar: acute
Encoding: 114 180 103
Width: 446
VWidth: 0
GlyphClass: 2
Flags: HW
AnchorPoint: "top" 160 828 mark 0
LayerCount: 2
Fore
SplineSet
202 963 m 1
 150 963 l 1
 316 1242 l 1
 448 1242 l 1
 202 963 l 1
EndSplineSet
EndChar

StartChar: ae
Encoding: 164 230 105
Width: 1532
VWidth: 0
GlyphClass: 2
Flags: HW
LayerCount: 2
Fore
SplineSet
1375 542 m 0
 1375 684 1284 789 1146 789 c 0
 996 789 856 678 812 476 c 1
 1369 476 l 1
 1373 500 1375 521 1375 542 c 0
509 789 m 0
 271 789 151 530 151 325 c 0
 151 171 227 43 393 43 c 0
 622 43 727 325 727 544 c 0
 727 662 656 789 509 789 c 0
384 -18 m 0
 184 -18 66 129 66 325 c 0
 66 589 239 851 501 851 c 0
 639 851 723 769 756 676 c 1
 787 828 l 1
 866 828 l 1
 823 665 l 1
 901 777 1010 851 1144 851 c 0
 1329 851 1443 711 1443 532 c 0
 1443 503 1438 440 1432 420 c 1
 802 420 l 1
 797 401 796 378 796 358 c 0
 796 156 920 43 1065 43 c 0
 1163 43 1272 95 1359 208 c 1
 1409 170 l 1
 1321 43 1187 -18 1062 -18 c 0
 919 -18 778 78 732 257 c 1
 674 112 562 -18 384 -18 c 0
EndSplineSet
EndChar

StartChar: ampersand
Encoding: 6 38 107
Width: 1114
VWidth: 0
GlyphClass: 2
Flags: HW
LayerCount: 2
Fore
SplineSet
382 925 m 2
 468 758 l 1
 703 841 768 927 798 1063 c 0
 800 1076 802 1088 802 1100 c 0
 802 1187 723 1231 618 1231 c 0
 483 1231 358 1132 358 1011 c 0
 358 981 366 955 382 925 c 2
697 184 m 1
 419 672 l 1
 186 608 103 486 75 349 c 0
 71 329 69 311 69 293 c 0
 69 161 172 50 353 50 c 0
 469 50 575 70 697 184 c 1
889 468 m 1
 951 448 l 1
 917 325 810 203 790 181 c 1
 856 70 l 1
 1022 70 l 1
 1008 0 l 1
 806 0 l 1
 728 126 l 1
 592 4 452 -23 330 -23 c 0
 128 -23 -12 101 -12 268 c 0
 -12 291 -9 313 -5 336 c 0
 36 525 134 652 393 730 c 1
 306 898 l 2
 289 931 282 967 282 1002 c 0
 282 1152 428 1306 631 1306 c 0
 791 1306 881 1225 881 1113 c 0
 881 1098 879 1082 876 1065 c 0
 845 920 753 801 493 704 c 1
 757 239 l 1
 776 259 854 344 889 468 c 1
EndSplineSet
EndChar

StartChar: asciicircum
Encoding: 62 94 110
Width: 911
VWidth: 0
GlyphClass: 2
Flags: HW
LayerCount: 2
Fore
SplineSet
619 1306 m 1
 853 792 l 1
 778 792 l 1
 560 1234 l 1
 139 792 l 1
 61 792 l 1
 530 1306 l 1
 619 1306 l 1
EndSplineSet
EndChar

StartChar: asciitilde
Encoding: 94 126 111
Width: 836
VWidth: 0
GlyphClass: 2
Flags: HW
LayerCount: 2
Fore
SplineSet
202 1070 m 1
 162 1070 l 1
 193 1163 254 1204 319 1204 c 0
 440 1204 531 1155 622 1155 c 0
 661 1155 694 1172 710 1200 c 1
 749 1200 l 1
 720 1115 665 1063 590 1063 c 0
 457 1063 367 1112 272 1112 c 0
 236 1112 216 1098 202 1070 c 1
EndSplineSet
EndChar

StartChar: asterisk
Encoding: 10 42 112
Width: 1145
VWidth: 0
GlyphClass: 2
Flags: HW
LayerCount: 2
Fore
SplineSet
589 1279 m 1
 694 1279 l 1
 570 851 l 1
 997 1032 l 1
 1010 942 l 1
 572 817 l 1
 783 491 l 1
 691 431 l 1
 538 792 l 1
 232 431 l 1
 166 491 l 1
 515 817 l 1
 129 942 l 1
 180 1032 l 1
 532 851 l 1
 589 1279 l 1
EndSplineSet
EndChar

StartChar: at
Encoding: 32 64 113
Width: 1466
VWidth: 0
GlyphClass: 2
Flags: HW
LayerCount: 2
Fore
SplineSet
435 505 m 0
 435 406 483 330 591 330 c 0
 737 330 950 570 950 788 c 0
 950 887 889 950 786 950 c 0
 589 950 435 682 435 505 c 0
914 1316 m 0
 1278 1316 1418 1120 1418 891 c 0
 1418 566 1131 262 908 262 c 0
 872 262 834 288 834 353 c 0
 834 375 837 410 851 441 c 1
 737 311 632 262 540 262 c 0
 431 262 336 341 336 491 c 0
 336 717 525 1023 813 1023 c 0
 899 1023 988 981 1019 874 c 1
 1071 1001 l 1
 1161 1001 l 1
 909 418 l 2
 905 407 901 398 901 385 c 0
 901 357 921 338 949 338 c 0
 1040 338 1332 544 1332 863 c 0
 1332 1070 1187 1242 894 1242 c 0
 502 1242 122 919 122 461 c 0
 122 195 303 28 650 28 c 0
 820 28 958 63 1081 139 c 1
 1108 87 l 1
 975 0 831 -45 635 -45 c 0
 211 -45 31 189 31 465 c 0
 31 847 383 1316 914 1316 c 0
EndSplineSet
EndChar

StartChar: b
Encoding: 66 98 115
Width: 1050
VWidth: 0
GlyphClass: 2
Flags: HW
PickledData: "(dp1
S'com.typemytype.robofont.layerData'
p2
(dp3
S'back'
p4
(dp5
S'name'
p6
S'b'
sS'lib'
p7
(dp8
sS'unicodes'
p9
(tsS'width'
p10
F1010.7873171112631
sS'contours'
p11
((dp12
S'points'
p13
((dp14
S'segmentType'
p15
S'curve'
p16
sS'x'
F904.16477366894992
sS'smooth'
p17
I01
sS'y'
F488
s(dp18
S'y'
F647
sS'x'
F904.16477366894992
sg17
I00
s(dp19
S'y'
F789
sS'x'
F832.16477366894992
sg17
I00
s(dp20
g15
S'curve'
p21
sS'x'
F674.16477366894992
sg17
I01
sS'y'
F789
s(dp22
S'y'
F789
sS'x'
F500.16477366894992
sg17
I00
s(dp23
S'y'
F635
sS'x'
F385.16477366894992
sg17
I00
s(dp24
g15
S'curve'
p25
sS'x'
F347.16477366894992
sg17
I01
sS'y'
F468
s(dp26
S'y'
F428
sS'x'
F339.16477366894992
sg17
I00
s(dp27
S'y'
F388
sS'x'
F334.16477366894992
sg17
I00
s(dp28
g15
S'curve'
p29
sS'x'
F334.16477366894992
sg17
I01
sS'y'
F349
s(dp30
S'y'
F188
sS'x'
F334.16477366894992
sg17
I00
s(dp31
S'y'
F43
sS'x'
F410.16477366894992
sg17
I00
s(dp32
g15
S'curve'
p33
sS'x'
F575.16477366894992
sg17
I01
sS'y'
F43
s(dp34
S'y'
F43
sS'x'
F783.16477366894992
sg17
I00
s(dp35
S'y'
F281
sS'x'
F904.16477366894992
sg17
I00
stp36
s(dp37
g13
((dp38
g15
S'line'
p39
sS'x'
F520.16477366894992
sg17
I00
sS'y'
F1265
s(dp40
g15
S'line'
p41
sS'x'
F400.16477366894992
sg17
I00
sS'y'
F686
s(dp42
S'y'
F793
sS'x'
F459.16477366894992
sg17
I00
s(dp43
S'y'
F851
sS'x'
F566.16477366894992
sg17
I00
s(dp44
g15
S'curve'
p45
sS'x'
F670.16477366894992
sg17
I01
sS'y'
F851
s(dp46
S'y'
F851
sS'x'
F879.16477366894992
sg17
I00
s(dp47
S'y'
F674
sS'x'
F976.16477366894992
sg17
I00
s(dp48
g15
S'curve'
p49
sS'x'
F976.16477366894992
sg17
I01
sS'y'
F479
s(dp50
S'y'
F243
sS'x'
F976.16477366894992
sg17
I00
s(dp51
S'y'
F-18
sS'x'
F833.16477366894992
sg17
I00
s(dp52
g15
S'curve'
p53
sS'x'
F573.16477366894992
sg17
I01
sS'y'
F-18
s(dp54
S'y'
F-18
sS'x'
F451.16477366894992
sg17
I00
s(dp55
S'y'
F65
sS'x'
F329.16477366894992
sg17
I00
s(dp56
g15
S'curve'
p57
sS'x'
F302.16477366894992
sg17
I00
sS'y'
F233
s(dp58
g15
S'line'
p59
sS'x'
F262.16477366894992
sg17
I00
sS'y'
F0
s(dp60
g15
S'line'
p61
sS'x'
F177.16477366894992
sg17
I00
sS'y'
F0
s(dp62
g15
S'line'
p63
sS'x'
F421.16477366894992
sg17
I00
sS'y'
F1208
s(dp64
g15
S'line'
p65
sS'x'
F253.16477366894992
sg17
I00
sS'y'
F1208
s(dp66
g15
S'line'
p67
sS'x'
F265.16477366894992
sg17
I00
sS'y'
F1265
stp68
stp69
sS'components'
p70
(tsS'anchors'
p71
(tsss."
LayerCount: 2
Fore
SplineSet
864 488 m 0
 864 645.415039062 792 786 634 786 c 0
 482 786 355 664.272460938 317 499 c 1
 290 359 l 1
 290 199.528320312 370 46 535 46 c 0
 743 46 864 282.395507812 864 488 c 0
480 1265 m 1
 360 686 l 1
 419 793 526 851 630 851 c 0
 839 851 936 674 936 479 c 0
 936 243 793 -18 533 -18 c 0
 411 -18 289 65 262 233 c 1
 222 0 l 1
 137 0 l 1
 381 1208 l 1
 213 1208 l 1
 225 1265 l 1
 480 1265 l 1
EndSplineSet
EndChar

StartChar: backslash
Encoding: 60 92 116
Width: 543
VWidth: 0
GlyphClass: 2
Flags: HW
LayerCount: 2
Fore
SplineSet
261 1306 m 1
 366 -23 l 1
 286 -23 l 1
 186 1306 l 1
 261 1306 l 1
EndSplineSet
EndChar

StartChar: bar
Encoding: 92 124 117
Width: 424
VWidth: 0
GlyphClass: 2
Flags: HW
LayerCount: 2
Fore
SplineSet
31 -23 m 1
 313 1306 l 1
 384 1306 l 1
 101 -23 l 1
 31 -23 l 1
EndSplineSet
EndChar

StartChar: braceleft
Encoding: 91 123 118
Width: 524
VWidth: 0
GlyphClass: 2
Flags: HW
LayerCount: 2
Fore
SplineSet
145 641 m 1
 218 635 243 591 243 508 c 0
 243 428 187 238 187 127 c 0
 187 48 231 33 340 33 c 1
 329 -23 l 1
 261 -23 l 2
 137 -23 98 30 98 117 c 0
 98 218 164 433 164 509 c 0
 164 573 132 597 37 597 c 1
 54 684 l 1
 207 684 224 748 265 945 c 0
 309 1155 334 1306 543 1306 c 2
 610 1306 l 1
 599 1249 l 1
 452 1249 412 1221 375 1044 c 0
 321 785 277 648 145 641 c 1
EndSplineSet
EndChar

StartChar: braceright
Encoding: 93 125 119
Width: 528
VWidth: 0
GlyphClass: 2
Flags: HW
LayerCount: 2
Fore
SplineSet
378 641 m 1
 308 645 281 690 281 774 c 0
 281 852 336 1042 336 1155 c 0
 336 1235 293 1249 184 1249 c 1
 196 1306 l 1
 264 1306 l 2
 388 1306 425 1252 425 1164 c 0
 425 1063 363 848 363 773 c 0
 363 709 392 684 487 684 c 1
 470 597 l 1
 317 597 303 534 261 337 c 0
 216 126 190 -23 -19 -23 c 2
 -86 -23 l 1
 -75 33 l 1
 73 33 113 60 151 238 c 0
 206 496 249 632 378 641 c 1
EndSplineSet
EndChar

StartChar: bracketleft
Encoding: 59 91 120
Width: 492
VWidth: 0
GlyphClass: 2
Flags: HW
LayerCount: 2
Fore
SplineSet
314 1306 m 1
 565 1306 l 1
 551 1241 l 1
 385 1241 l 1
 130 42 l 1
 296 42 l 1
 283 -23 l 1
 31 -23 l 1
 314 1306 l 1
EndSplineSet
EndChar

StartChar: bracketright
Encoding: 61 93 121
Width: 498
VWidth: 0
GlyphClass: 2
Flags: HW
LayerCount: 2
Fore
SplineSet
205 1306 m 1
 457 1306 l 1
 176 -23 l 1
 -76 -23 l 1
 -63 42 l 1
 105 42 l 1
 360 1241 l 1
 192 1241 l 1
 205 1306 l 1
EndSplineSet
EndChar

StartChar: breve
Encoding: 363 728 122
Width: 623
VWidth: 0
GlyphClass: 2
Flags: HW
AnchorPoint: "top" 294 830 mark 0
LayerCount: 2
Fore
SplineSet
188 1128 m 1
 241 1128 l 1
 240 1121 239 1114 239 1108 c 0
 239 1044 284 1012 335 1012 c 0
 391 1012 455 1049 483 1128 c 1
 528 1128 l 1
 491 1012 401 954 323 954 c 0
 250 954 187 1004 187 1104 c 0
 187 1113 187 1120 188 1128 c 1
EndSplineSet
EndChar

StartChar: brokenbar
Encoding: 100 166 123
Width: 414
VWidth: 0
GlyphClass: 2
Flags: HW
LayerCount: 2
Fore
SplineSet
29 -23 m 1
 147 538 l 1
 219 538 l 1
 98 -23 l 1
 29 -23 l 1
191 744 m 1
 311 1306 l 1
 382 1306 l 1
 262 744 l 1
 191 744 l 1
EndSplineSet
EndChar

StartChar: bullet
Encoding: 405 8226 124
Width: 758
VWidth: 0
GlyphClass: 2
Flags: HW
LayerCount: 2
Fore
SplineSet
127 652 m 0
 127 810 278 941 433 941 c 0
 554 941 638 861 638 750 c 0
 638 595 484 460 330 460 c 0
 209 460 127 542 127 652 c 0
EndSplineSet
EndChar

StartChar: c
Encoding: 67 99 125
Width: 1030
VWidth: 0
GlyphClass: 2
Flags: HW
PickledData: "(dp1
S'com.typemytype.robofont.layerData'
p2
(dp3
s."
AnchorPoint: "bot" 509 0 basechar 0
AnchorPoint: "top" 653 828 basechar 0
LayerCount: 2
Fore
SplineSet
811 733 m 1
 811 749.088867188 741 786 651 786 c 4
 403 786 257 540.625 257 333 c 0
 257 179.603515625 337 46 516 46 c 0
 608 46 709 97.0546875 790 208 c 1
 840 170 l 1
 758 43 629 -18 513 -18 c 0
 284 -18 180 149 180 336 c 0
 180 576 352 851 654 851 c 0
 764 851 891 802 884 741 c 2
 870 632 l 1
 799 613 l 1
 811 733 l 1
EndSplineSet
EndChar

StartChar: caron
Encoding: 362 711 127
Width: 614
VWidth: 0
GlyphClass: 2
Flags: HW
AnchorPoint: "top" 304 826 mark 0
LayerCount: 2
Fore
SplineSet
186 1243 m 1
 272 1243 l 1
 331 1010 l 1
 489 1243 l 1
 582 1243 l 1
 369 959 l 1
 270 959 l 1
 186 1243 l 1
EndSplineSet
EndChar

StartChar: cedilla
Encoding: 118 184 131
Width: 463
VWidth: 0
GlyphClass: 2
Flags: HW
AnchorPoint: "bot" 223 0 mark 0
LayerCount: 2
Fore
SplineSet
47 -266 m 1
 57 -218 l 1
 71 -222 108 -233 141 -233 c 0
 166 -233 199 -224 199 -196 c 0
 199 -170 160 -155 104 -150 c 1
 198 6 l 1
 250 6 l 1
 185 -112 l 1
 197 -112 l 2
 272 -112 307 -149 307 -191 c 0
 307 -236 260 -288 167 -288 c 0
 121 -288 75 -276 47 -266 c 1
EndSplineSet
EndChar

StartChar: cent
Encoding: 96 162 132
Width: 938
VWidth: 0
GlyphClass: 2
Flags: HW
LayerCount: 2
Fore
SplineSet
599 815 m 1
 581 817 560 819 538 819 c 0
 333 819 70 652 70 344 c 0
 70 218 135 130 233 87 c 1
 599 815 l 1
197 15 m 1
 70 67 -16 180 -16 335 c 0
 -16 661 250 883 552 888 c 0
 582 888 607 885 634 881 c 1
 747 1107 l 1
 807 1107 l 1
 688 868 l 1
 748 848 788 815 802 780 c 1
 826 895 l 1
 905 895 l 1
 848 624 l 1
 779 624 l 1
 780 632 780 641 780 648 c 0
 780 713 749 776 655 804 c 1
 287 67 l 1
 316 60 344 56 376 56 c 0
 507 56 656 114 771 231 c 1
 778 155 l 1
 635 37 485 -14 356 -14 c 0
 320 -14 286 -9 252 0 c 1
 142 -222 l 1
 77 -222 l 1
 197 15 l 1
EndSplineSet
EndChar

StartChar: circumflex
Encoding: 361 710 133
Width: 618
VWidth: 0
GlyphClass: 2
Flags: HW
AnchorPoint: "top" 312 828 mark 0
LayerCount: 2
Fore
SplineSet
215 959 m 1
 129 959 l 1
 335 1243 l 1
 434 1243 l 1
 525 959 l 1
 432 959 l 1
 374 1192 l 1
 215 959 l 1
EndSplineSet
EndChar

StartChar: colon
Encoding: 26 58 134
Width: 485
VWidth: 0
GlyphClass: 2
Flags: HW
LayerCount: 2
Fore
SplineSet
122 326 m 1
 243 326 l 1
 216 202 l 1
 94 202 l 1
 122 326 l 1
233 848 m 1
 354 848 l 1
 328 723 l 1
 205 723 l 1
 233 848 l 1
EndSplineSet
EndChar

StartChar: comma
Encoding: 12 44 135
Width: 463
VWidth: 0
GlyphClass: 2
Flags: HW
AnchorPoint: "bot" 212 220.2 mark 0
LayerCount: 2
Fore
SplineSet
135 120 m 1
 265 120 l 1
 239 -6 l 1
 216 -108 164 -188 59 -188 c 1
 69 -142 l 1
 143 -118 154 -92 172 -4 c 1
 108 -4 l 1
 135 120 l 1
EndSplineSet
EndChar

StartChar: commaaccent
Encoding: 65540 63171 136
Width: 463
VWidth: 0
GlyphClass: 2
Flags: HW
AnchorPoint: "bot" 223 0 mark 0
LayerCount: 2
Fore
SplineSet
136 -99 m 1
 266 -99 l 1
 240 -225 l 1
 217 -327 165 -407 60 -407 c 1
 70 -361 l 1
 144 -337 154 -311 172 -223 c 1
 108 -223 l 1
 136 -99 l 1
EndSplineSet
EndChar

StartChar: copyright
Encoding: 103 169 137
Width: 1473
VWidth: 0
GlyphClass: 2
Flags: HW
LayerCount: 2
Fore
SplineSet
1417 796 m 0
 1417 419 1108 -23 592 -23 c 0
 216 -23 47 213 47 488 c 0
 47 865 364 1309 874 1309 c 0
 1249 1309 1417 1071 1417 796 c 0
1342 779 m 0
 1342 1028 1191 1247 861 1247 c 0
 396 1247 124 827 124 491 c 0
 124 242 271 36 604 36 c 0
 1056 36 1342 442 1342 779 c 0
1001 800 m 0
 1001 873 958 947 800 947 c 0
 635 947 413 806 413 555 c 0
 413 408 526 317 665 317 c 0
 775 317 902 367 997 466 c 1
 1005 395 l 1
 883 294 756 251 649 251 c 0
 471 251 334 366 334 545 c 0
 334 819 560 1011 813 1011 c 0
 924 1011 998 974 1020 931 c 1
 1038 1017 l 1
 1112 1017 l 1
 1063 784 l 1
 999 784 l 1
 999 789 1001 795 1001 800 c 0
EndSplineSet
EndChar

StartChar: currency
Encoding: 98 164 138
Width: 1130
VWidth: 0
GlyphClass: 2
Flags: HW
LayerCount: 2
Fore
SplineSet
554 708 m 0
 715 708 913 833 913 1072 c 0
 913 1222 800 1297 673 1297 c 0
 518 1297 312 1176 312 931 c 0
 312 781 426 708 554 708 c 0
125 648 m 1
 250 750 l 1
 218 801 202 863 202 928 c 0
 202 1041 252 1164 355 1257 c 1
 276 1359 l 1
 380 1444 l 1
 466 1337 l 1
 535 1377 617 1398 693 1398 c 0
 772 1398 846 1377 902 1335 c 1
 1036 1444 l 1
 1103 1359 l 1
 978 1255 l 1
 1007 1204 1021 1145 1021 1086 c 0
 1021 971 969 851 869 753 c 1
 952 648 l 1
 847 563 l 1
 759 673 l 1
 691 631 611 611 533 611 c 0
 455 611 380 631 326 672 c 1
 193 563 l 1
 125 648 l 1
EndSplineSet
EndChar

StartChar: d
Encoding: 68 100 139
Width: 1191
VWidth: 0
GlyphClass: 2
Flags: HW
PickledData: "(dp1
S'com.typemytype.robofont.layerData'
p2
(dp3
s."
LayerCount: 2
Fore
SplineSet
825 482 m 0
 825 261.516601562 699 46 491 46 c 0
 329 46 255 178.609375 255 332 c 0
 255 541.079101562 387 786 584 786 c 0
 750 786 825 642.94140625 825 482 c 0
489 -18 m 0
 593 -18 708 48 767 154 c 1
 766 144 764 135 764 125 c 0
 764 54 804 -9 901 -9 c 0
 991 -9 1061 64 1088 188 c 1
 1031 210 l 1
 1009 134 970 52 905 52 c 0
 859 52 847 90 847 130 c 0
 847 148 850 166 853 181 c 2
 1070 1260 l 1
 816 1260 l 1
 804 1203 l 1
 972 1203 l 1
 853 624 l 1
 813 782.69921875 710 851 586 851 c 0
 336 851 183 582.470703125 183 344 c 0
 183 142 276 -18 489 -18 c 0
EndSplineSet
EndChar

StartChar: dagger
Encoding: 403 8224 140
Width: 555
VWidth: 0
GlyphClass: 2
Flags: HW
LayerCount: 2
Fore
SplineSet
583 897 m 1
 353 923 l 1
 346 596 231 353 157 2 c 1
 115 2 l 1
 190 357 178 594 311 923 c 1
 66 897 l 1
 83 978 l 1
 319 960 l 1
 349 1259 l 1
 459 1259 l 1
 361 960 l 1
 601 978 l 1
 583 897 l 1
EndSplineSet
EndChar

StartChar: daggerdbl
Encoding: 404 8225 141
Width: 573
VWidth: 0
GlyphClass: 2
Flags: HW
LayerCount: 2
Fore
SplineSet
319 923 m 1
 76 897 l 1
 92 978 l 1
 328 960 l 1
 357 1259 l 1
 467 1259 l 1
 369 960 l 1
 610 978 l 1
 593 897 l 1
 361 923 l 1
 357 813 273 415 232 311 c 1
 472 337 l 1
 456 255 l 1
 223 273 l 1
 194 -24 l 1
 84 -24 l 1
 182 273 l 1
 -61 255 l 1
 -45 337 l 1
 190 311 l 1
 192 416 278 817 319 923 c 1
EndSplineSet
EndChar

StartChar: dcroat
Encoding: 207 273 143
Width: 1030
VWidth: 0
GlyphClass: 2
Flags: HW
LayerCount: 2
Fore
SplineSet
138 332 m 0
 138 177 206 43 368 43 c 0
 584 43 708 276 708 482 c 0
 708 644 633 788 467 788 c 0
 270 788 138 542 138 332 c 0
855 1203 m 1
 687 1203 l 1
 699 1260 l 1
 953 1260 l 1
 901 1001 l 1
 1058 1001 l 1
 1041 937 l 1
 888 937 l 1
 736 181 l 2
 733 166 730 148 730 130 c 0
 730 90 742 52 788 52 c 0
 853 52 892 134 914 210 c 1
 971 188 l 1
 944 64 874 -9 784 -9 c 0
 683 -9 649 54 649 129 c 0
 649 136 649 147 650 154 c 1
 591 48 476 -18 372 -18 c 0
 159 -18 66 153 66 344 c 0
 66 582 219 850 469 850 c 0
 593 850 696 782 736 624 c 1
 800 937 l 1
 600 937 l 1
 616 1001 l 1
 813 1001 l 1
 855 1203 l 1
EndSplineSet
EndChar

StartChar: degree
Encoding: 110 176 144
Width: 889
VWidth: 0
GlyphClass: 2
Flags: HW
LayerCount: 2
Fore
SplineSet
822 1160 m 0
 822 921 597 799 432 799 c 0
 297 799 168 876 168 1028 c 0
 168 1268 393 1390 558 1390 c 0
 694 1390 822 1313 822 1160 c 0
705 1141 m 0
 705 1233 638 1289 536 1289 c 0
 407 1289 287 1192 287 1048 c 0
 287 956 352 900 454 900 c 0
 583 900 705 996 705 1141 c 0
EndSplineSet
EndChar

StartChar: dieresis
Encoding: 102 168 145
Width: 655
VWidth: 0
GlyphClass: 2
Flags: HW
AnchorPoint: "top" 312 828 mark 0
LayerCount: 2
Fore
SplineSet
187 1088 m 1
 291 1088 l 1
 266 977 l 1
 162 977 l 1
 187 1088 l 1
439 1088 m 1
 543 1088 l 1
 518 977 l 1
 414 977 l 1
 439 1088 l 1
EndSplineSet
EndChar

StartChar: divide
Encoding: 181 247 146
Width: 571
VWidth: 0
GlyphClass: 2
Flags: HW
LayerCount: 2
Fore
SplineSet
271 754 m 1
 391 754 l 1
 363 629 l 1
 243 629 l 1
 271 754 l 1
171 288 m 1
 291 288 l 1
 265 162 l 1
 144 162 l 1
 171 288 l 1
535 429 m 1
 548 494 l 1
 -3 494 l 1
 -16 429 l 1
 535 429 l 1
EndSplineSet
EndChar

StartChar: dollar
Encoding: 4 36 147
Width: 1151
VWidth: 0
GlyphClass: 2
Flags: HW
LayerCount: 2
Fore
SplineSet
693 1230 m 1
 689 1230 l 2
 437 1230 277 1094 277 883 c 0
 277 745 402 716 580 697 c 1
 693 1230 l 1
506 55 m 1
 516 54 528 54 540 54 c 0
 752 54 917 209 917 404 c 0
 917 542 805 585 623 611 c 1
 506 55 l 1
493 -23 m 2
 490 -23 l 1
 452 -198 l 1
 390 -198 l 1
 427 -20 l 1
 301 -7 195 43 104 116 c 1
 81 0 l 1
 -2 0 l 1
 90 432 l 1
 172 432 l 1
 124 204 l 1
 217 120 316 73 445 59 c 1
 563 618 l 1
 328 642 183 695 183 872 c 0
 183 1156 441 1306 691 1306 c 2
 709 1306 l 1
 747 1478 l 1
 809 1478 l 1
 770 1300 l 1
 864 1290 950 1259 1032 1210 c 1
 1048 1284 l 1
 1130 1284 l 1
 1056 935 l 1
 973 935 l 1
 1014 1124 l 1
 966 1161 879 1212 755 1226 c 1
 640 690 l 1
 842 665 1012 610 1012 417 c 0
 1012 392 1008 362 1001 329 c 0
 971 192 820 -23 493 -23 c 2
EndSplineSet
EndChar

StartChar: dotaccent
Encoding: 364 729 148
Width: 473
VWidth: 0
GlyphClass: 2
Flags: HW
AnchorPoint: "top" 160 828 mark 0
LayerCount: 2
Fore
SplineSet
162 1099 m 1
 282 1099 l 1
 257 974 l 1
 135 974 l 1
 162 1099 l 1
EndSplineSet
EndChar

StartChar: dotaccentcmb
Encoding: 369 775 149
Width: 444
VWidth: 0
GlyphClass: 2
Flags: HW
AnchorPoint: "top" 160 828 mark 0
LayerCount: 2
Fore
SplineSet
171.5 1151.79980469 m 5
 291.5 1151.79980469 l 5
 266.5 1026.79980469 l 5
 144.5 1026.79980469 l 5
 171.5 1151.79980469 l 5
EndSplineSet
EndChar

StartChar: dotlessi
Encoding: 239 305 150
Width: 574
VWidth: 0
GlyphClass: 2
Flags: HW
AnchorPoint: "top" 373 828 basechar 0
LayerCount: 2
Fore
SplineSet
249 208 m 1
 365 770 l 1
 197 770 l 1
 209 828 l 1
 463 828 l 1
 334 210 l 2
 329 185 324 155 324 128 c 0
 324 86 337 52 389 52 c 0
 455 52 489 135 513 213 c 1
 567 192 l 1
 533 65 475 -9 378 -9 c 0
 286 -9 242 56 242 142 c 0
 242 163 244 185 249 208 c 1
EndSplineSet
EndChar

StartChar: dotlessj
Encoding: 360 567 151
Width: 422
VWidth: 0
GlyphClass: 2
Flags: HW
LayerCount: 2
Fore
SplineSet
90 -36 m 2
 262 769 l 1
 119 769 l 1
 131 828 l 1
 356 828 l 1
 176 -22 l 1
 148 -149 121 -282 -99 -282 c 2
 -184 -282 l 1
 -171 -219 l 1
 -89 -219 l 2
 52 -219 65 -155 90 -36 c 2
EndSplineSet
EndChar

StartChar: e
Encoding: 69 101 152
Width: 1041
VWidth: 0
GlyphClass: 2
Flags: HW
PickledData: "(dp1
S'com.typemytype.robofont.layerData'
p2
(dp3
s."
AnchorPoint: "bot" 604 0 basechar 0
AnchorPoint: "top" 603 828 basechar 0
LayerCount: 2
Fore
SplineSet
281 476 m 1
 326 676.063476562 467 786 617 786 c 0
 753 786 845 682.275390625 845 542 c 0
 845 521 843 500 839 476 c 1
 281 476 l 1
532 -18 m 0
 656 -18 791 43 879 170 c 1
 829 208 l 1
 742 97.0546875 633 46 535 46 c 0
 389 46 266 157.923828125 266 358 c 0
 266 378 267 401 272 420 c 1
 901 420 l 1
 907 440 913 503 913 532 c 0
 913 711 798 851 614 851 c 0
 336 851 182 594 182 355 c 0
 182 109 350 -18 532 -18 c 0
EndSplineSet
EndChar

StartChar: eight
Encoding: 24 56 158
Width: 1044
VWidth: 0
GlyphClass: 2
Flags: HW
LayerCount: 2
Fore
SplineSet
890 1027 m 0
 890 1136 815 1230 642 1230 c 0
 415 1230 284 1068 284 920 c 0
 284 809 361 707 531 707 c 0
 754 707 890 883 890 1027 c 0
799 389 m 0
 799 511 708 620 513 620 c 0
 253 620 104 432 104 274 c 0
 104 124 241 51 391 51 c 0
 571 51 799 166 799 389 c 0
672 670 m 1
 808 641 887 537 887 406 c 0
 887 111 599 -24 374 -24 c 0
 182 -24 14 64 14 254 c 0
 14 450 171 630 374 670 c 1
 249 711 196 806 196 908 c 0
 196 1093 372 1306 659 1306 c 0
 877 1306 980 1181 980 1039 c 0
 980 899 864 718 672 670 c 1
EndSplineSet
EndChar

StartChar: ellipsis
Encoding: 406 8230 159
Width: 991
VWidth: 0
GlyphClass: 2
Flags: HW
LayerCount: 2
Fore
SplineSet
665 124 m 1
 787 124 l 1
 760 0 l 1
 640 0 l 1
 665 124 l 1
394 124 m 1
 516 124 l 1
 490 0 l 1
 369 0 l 1
 394 124 l 1
124 124 m 1
 244 124 l 1
 219 0 l 1
 96 0 l 1
 124 124 l 1
EndSplineSet
EndChar

StartChar: emdash
Encoding: 396 8212 160
Width: 1432
VWidth: 0
GlyphClass: 2
Flags: HW
LayerCount: 2
Fore
SplineSet
107 62 m 1
 1227 62 l 1
 1214 0 l 1
 92 0 l 1
 107 62 l 1
EndSplineSet
EndChar

StartChar: endash
Encoding: 395 8211 161
Width: 1057
VWidth: 0
GlyphClass: 2
Flags: HW
LayerCount: 2
Fore
SplineSet
107 62 m 1
 851 62 l 1
 839 0 l 1
 92 0 l 1
 107 62 l 1
EndSplineSet
EndChar

StartChar: equal
Encoding: 29 61 163
Width: 854
VWidth: 0
GlyphClass: 2
Flags: HW
LayerCount: 2
Fore
SplineSet
658 436 m 1
 643 370 l 1
 113 370 l 1
 129 436 l 1
 658 436 l 1
718 724 m 1
 705 660 l 1
 174 660 l 1
 189 724 l 1
 718 724 l 1
EndSplineSet
EndChar

StartChar: eth
Encoding: 174 240 164
Width: 977
VWidth: 0
GlyphClass: 2
Flags: HW
LayerCount: 2
Fore
SplineSet
814 439 m 0
 814 580 733 704 550 704 c 0
 378 704 151 561 151 297 c 0
 151 165 232 51 421 51 c 0
 665 51 814 261 814 439 c 0
300 998 m 1
 282 1052 l 1
 527 1154 l 1
 467 1232 403 1315 327 1375 c 1
 384 1434 l 1
 469 1349 540 1266 599 1186 c 1
 869 1298 l 1
 891 1241 l 1
 633 1137 l 1
 867 792 886 514 886 449 c 0
 886 182 671 -23 406 -23 c 0
 174 -23 66 119 66 293 c 0
 66 552 302 776 555 776 c 0
 621 776 708 750 758 706 c 1
 739 800 668 957 562 1106 c 1
 300 998 l 1
EndSplineSet
EndChar

StartChar: exclam
Encoding: 1 33 165
Width: 412
VWidth: 0
GlyphClass: 2
Flags: HW
LayerCount: 2
Fore
SplineSet
25 0 m 1
 47 110 l 1
 157 110 l 1
 138 0 l 1
 25 0 l 1
171 358 m 1
 138 358 l 1
 210 841 l 1
 290 1218 l 1
 383 1218 l 1
 302 841 l 1
 171 358 l 1
EndSplineSet
EndChar

StartChar: exclamdown
Encoding: 95 161 166
Width: 455
VWidth: 0
GlyphClass: 2
Flags: HW
LayerCount: 2
Fore
SplineSet
253 861 m 1
 286 861 l 1
 212 376 l 1
 134 0 l 1
 41 0 l 1
 120 376 l 1
 253 861 l 1
268 1109 m 1
 292 1218 l 1
 399 1218 l 1
 378 1109 l 1
 268 1109 l 1
EndSplineSet
EndChar

StartChar: f
Encoding: 70 102 167
Width: 852
VWidth: 0
GlyphClass: 2
Flags: HW
PickledData: "(dp1
S'com.typemytype.robofont.layerData'
p2
(dp3
s."
LayerCount: 2
Fore
SplineSet
906 1209 m 1
 859 1159 l 1
 834 1190 800 1206 763 1206 c 0
 685 1206 601 1147 585 1071 c 2
 533 828 l 1
 725 828 l 1
 712 770 l 1
 521 770 l 1
 372 53 l 1
 571 53 l 1
 559 0 l 1
 106 0 l 1
 119 53 l 1
 290 53 l 1
 437 770 l 1
 262 770 l 1
 276 828 l 1
 452 828 l 1
 502 1069 l 1
 524 1181 646 1267 763 1267 c 0
 815 1267 865 1251 906 1209 c 1
EndSplineSet
EndChar

StartChar: five
Encoding: 21 53 168
Width: 1026
VWidth: 0
GlyphClass: 2
Flags: HW
LayerCount: 2
Fore
SplineSet
9 225 m 1
 66 98 217 55 362 55 c 0
 607 55 837 191 837 494 c 0
 837 641 756 757 589 757 c 0
 464 757 331 745 206 686 c 1
 157 713 l 1
 279 1284 l 1
 953 1284 l 1
 936 1211 l 1
 346 1211 l 1
 244 778 l 1
 347 820 490 828 593 828 c 0
 808 828 925 697 925 508 c 0
 925 155 634 -18 348 -18 c 0
 185 -18 21 33 -51 169 c 1
 9 225 l 1
EndSplineSet
EndChar

StartChar: florin
Encoding: 317 402 169
Width: 707
VWidth: 0
GlyphClass: 2
Flags: HW
LayerCount: 2
Fore
SplineSet
878 1268 m 1
 851 1212 l 1
 822 1224 789 1231 755 1231 c 0
 703 1231 653 1202 615 1124 c 2
 491 870 l 1
 701 870 l 1
 673 811 l 1
 462 811 l 1
 95 62 l 1
 22 -90 -87 -90 -182 -90 c 1
 -151 -24 l 1
 -95 -24 -28 -24 15 62 c 2
 380 811 l 1
 219 811 l 1
 247 870 l 1
 408 870 l 1
 533 1122 l 1
 583 1231 667 1294 765 1294 c 0
 800 1294 842 1286 878 1268 c 1
EndSplineSet
EndChar

StartChar: four
Encoding: 20 52 171
Width: 858
VWidth: 0
GlyphClass: 2
Flags: HW
LayerCount: 2
Fore
SplineSet
17 460 m 1
 459 460 l 1
 617 1203 l 1
 17 460 l 1
-82 395 m 1
 -80 460 l 1
 600 1284 l 1
 719 1284 l 1
 543 460 l 1
 810 460 l 1
 797 395 l 1
 530 395 l 1
 460 64 l 1
 628 64 l 1
 614 0 l 1
 194 0 l 1
 209 64 l 1
 376 64 l 1
 445 395 l 1
 -82 395 l 1
EndSplineSet
EndChar

StartChar: foursuperior
Encoding: 65542 8308 172
Width: 760
VWidth: 0
GlyphClass: 2
Flags: HW
LayerCount: 2
Fore
SplineSet
99 336 m 1
 377 336 l 1
 476 799 l 1
 350 645 225 491 99 336 c 1
2 270 m 1
 5 328 l 1
 478 901 l 1
 574 901 l 1
 454 336 l 1
 639 336 l 1
 625 270 l 1
 440 270 l 1
 396 63 l 1
 512 63 l 1
 500 0 l 1
 191 0 l 1
 203 63 l 1
 319 63 l 1
 364 270 l 1
 2 270 l 1
EndSplineSet
EndChar

StartChar: fraction
Encoding: 410 8260 173
Width: 537
VWidth: 0
GlyphClass: 2
Flags: HW
LayerCount: 2
Fore
SplineSet
-113 -23 m 1
 556 1306 l 1
 630 1306 l 1
 -35 -23 l 1
 -113 -23 l 1
EndSplineSet
EndChar

StartChar: g
Encoding: 71 103 174
Width: 1065
VWidth: 0
GlyphClass: 2
Flags: HW
PickledData: "(dp1
S'com.typemytype.robofont.layerData'
p2
(dp3
s."
AnchorPoint: "top" 603 828 basechar 0
LayerCount: 2
Fore
SplineSet
817 482 m 0
 817 263.502929688 691 46 487 46 c 0
 328 46 258 191.544921875 258 346 c 0
 258 351 258 357 258 362 c 0
 264 559.0703125 359 786 576 786 c 0
 742 786 817 642.94140625 817 482 c 0
424 -312 m 0
 620 -312 764 -212 817 49 c 2
 974 828 l 1
 890 828 l 1
 851 598 l 1
 822 766.666992188 702 851 578 851 c 0
 320 851 179 614.528320312 179 350 c 0
 179 94 333 -18 491 -18 c 0
 596 -18 704 43 762 155 c 1
 737 51 l 2
 682 -179 593 -251 424 -251 c 0
 332 -251 255 -219 206 -174 c 1
 171 -225 l 1
 241 -285 329 -312 424 -312 c 0
EndSplineSet
EndChar

StartChar: germandbls
Encoding: 157 223 175
Width: 1114
VWidth: 0
GlyphClass: 2
Flags: HW
LayerCount: 2
Fore
SplineSet
185 64 m 1
 306 64 l 1
 292 0 l 1
 -72 0 l 1
 -59 64 l 1
 101 64 l 1
 275 885 l 2
 331 1151 472 1306 727 1306 c 0
 933 1306 1032 1185 1032 1054 c 0
 1032 918 934 741 736 704 c 1
 929 696 1037 577 1037 424 c 0
 1037 187 838 0 449 0 c 1
 463 64 l 1
 684 64 899 126 947 351 c 0
 952 373 954 397 954 419 c 0
 954 554 860 667 599 667 c 1
 608 713 l 1
 818 723 948 900 948 1041 c 0
 948 1143 874 1228 715 1228 c 0
 501 1228 411 1132 360 890 c 2
 185 64 l 1
EndSplineSet
EndChar

StartChar: grave
Encoding: 64 96 176
Width: 410
VWidth: 0
GlyphClass: 2
Flags: HW
AnchorPoint: "top" 160 828 mark 0
LayerCount: 2
Fore
SplineSet
175 963 m 1
 142 963 l 1
 -67 1244 l 1
 74 1244 l 1
 175 963 l 1
EndSplineSet
EndChar

StartChar: greater
Encoding: 30 62 177
Width: 827
VWidth: 0
GlyphClass: 2
Flags: HW
LayerCount: 2
Fore
SplineSet
930 637 m 1
 -92 -23 l 1
 -71 70 l 1
 812 637 l 1
 169 1209 l 1
 191 1306 l 1
 930 637 l 1
EndSplineSet
EndChar

StartChar: guillemotleft
Encoding: 105 171 178
Width: 803
VWidth: 0
GlyphClass: 2
Flags: HW
LayerCount: 2
Fore
SplineSet
59 691 m 1
 425 1085 l 1
 475 1085 l 1
 171 691 l 1
 307 293 l 1
 257 293 l 1
 59 691 l 1
337 691 m 1
 705 1085 l 1
 755 1085 l 1
 450 691 l 1
 585 293 l 1
 536 293 l 1
 337 691 l 1
EndSplineSet
EndChar

StartChar: guillemotright
Encoding: 121 187 179
Width: 799
VWidth: 0
GlyphClass: 2
Flags: HW
LayerCount: 2
Fore
SplineSet
528 1085 m 1
 729 691 l 1
 359 293 l 1
 310 293 l 1
 616 691 l 1
 478 1085 l 1
 528 1085 l 1
249 1085 m 1
 449 691 l 1
 81 293 l 1
 31 293 l 1
 337 691 l 1
 199 1085 l 1
 249 1085 l 1
EndSplineSet
EndChar

StartChar: guilsinglleft
Encoding: 408 8249 180
Width: 522
VWidth: 0
GlyphClass: 2
Flags: HW
LayerCount: 2
Fore
SplineSet
59 691 m 1
 425 1085 l 1
 475 1085 l 1
 171 691 l 1
 307 293 l 1
 257 293 l 1
 59 691 l 1
EndSplineSet
EndChar

StartChar: guilsinglright
Encoding: 409 8250 181
Width: 520
VWidth: 0
GlyphClass: 2
Flags: HW
LayerCount: 2
Fore
SplineSet
249 1085 m 1
 449 691 l 1
 81 293 l 1
 31 293 l 1
 337 691 l 1
 199 1085 l 1
 249 1085 l 1
EndSplineSet
EndChar

StartChar: h
Encoding: 72 104 182
Width: 1090
VWidth: 0
GlyphClass: 2
Flags: HW
PickledData: "(dp1
S'com.typemytype.robofont.layerData'
p2
(dp3
s."
AnchorPoint: "top" 603 828 basechar 0
LayerCount: 2
Fore
SplineSet
507 1265 m 1
 384 694 l 1
 457 793 563 851 678 851 c 0
 831 851 895 758 895 636 c 0
 895 607 891 576 884 545 c 1
 803 202 l 2
 799 185 790 153 790 122 c 0
 790 86 803 52 850 52 c 0
 915 52 954 134 976 210 c 1
 1033 188 l 1
 1006 64 936 -9 846 -9 c 0
 746 -9 710 51 710 126 c 0
 710 150 714 175 720 201 c 2
 805 550 l 1
 814 579 818 608 818 635 c 0
 818 719.32421875 773 786 668 786 c 4
 556 786 386 684.956054688 343 469 c 2
 250 0 l 1
 165 0 l 1
 409 1208 l 1
 241 1208 l 1
 253 1265 l 1
 507 1265 l 1
EndSplineSet
EndChar

StartChar: hbar
Encoding: 229 295 183
Width: 1016
VWidth: 0
GlyphClass: 2
Flags: HW
LayerCount: 2
Fore
SplineSet
132 990 m 1
 148 1058 l 1
 302 1058 l 1
 332 1208 l 1
 164 1208 l 1
 176 1265 l 1
 430 1265 l 1
 385 1058 l 1
 554 1058 l 1
 539 990 l 1
 371 990 l 1
 307 694 l 1
 380 793 486 851 601 851 c 0
 753 851 817 758 817 639 c 0
 817 610 814 577 807 545 c 2
 726 202 l 2
 722 185 712 152 712 121 c 0
 712 85 726 52 773 52 c 0
 838 52 877 134 899 210 c 1
 956 188 l 1
 929 64 859 -9 769 -9 c 0
 668 -9 634 54 634 129 c 0
 634 152 637 176 643 201 c 2
 728 550 l 1
 736 577 739 608 739 633 c 0
 739 720 698 789 591 789 c 0
 479 789 309 687 266 469 c 2
 173 0 l 1
 88 0 l 1
 288 990 l 1
 132 990 l 1
EndSplineSet
EndChar

StartChar: hungarumlaut
Encoding: 368 733 184
Width: 657
VWidth: 0
GlyphClass: 2
Flags: HW
AnchorPoint: "top" 266 824 mark 0
LayerCount: 2
Fore
SplineSet
205 1025 m 1
 172 1025 l 1
 289 1284 l 1
 420 1284 l 1
 205 1025 l 1
423 1025 m 1
 391 1025 l 1
 508 1284 l 1
 638 1284 l 1
 423 1025 l 1
EndSplineSet
EndChar

StartChar: hyphen
Encoding: 13 45 185
Width: 621
VWidth: 0
GlyphClass: 2
Flags: HW
LayerCount: 2
Fore
SplineSet
503 500 m 1
 475 415 l 1
 153 415 l 1
 181 500 l 1
 503 500 l 1
EndSplineSet
EndChar

StartChar: i
Encoding: 73 105 186
Width: 614
VWidth: 0
GlyphClass: 2
Flags: HW
PickledData: "(dp1
S'com.typemytype.robofont.layerData'
p2
(dp3
s."
LayerCount: 2
Fore
SplineSet
417 1024 m 0
 377 1024 347 1056 347 1093 c 0
 347 1136 377 1164 415 1164 c 0
 468 1164 490 1126 490 1093 c 0
 490 1059 463 1024 417 1024 c 0
209 208 m 1
 325 770 l 1
 157 770 l 1
 169 828 l 1
 423 828 l 1
 294 210 l 2
 289 185 284 155 284 128 c 0
 284 86 297 52 349 52 c 0
 415 52 449 135 473 213 c 1
 527 192 l 1
 493 65 435 -9 338 -9 c 0
 246 -9 202 56 202 142 c 0
 202 163 204 185 209 208 c 1
EndSplineSet
EndChar

StartChar: j
Encoding: 74 106 194
Width: 594
VWidth: 0
GlyphClass: 2
Flags: HW
PickledData: "(dp1
S'com.typemytype.robofont.layerData'
p2
(dp3
s."
LayerCount: 2
Fore
SplineSet
207 -36 m 2
 378 769 l 1
 236 769 l 1
 248 828 l 1
 472 828 l 1
 293 -22 l 1
 265 -149 238 -282 15 -282 c 2
 -67 -282 l 1
 -54 -219 l 1
 29 -219 l 2
 168 -219 182 -155 207 -36 c 2
468 1024 m 0
 428 1024 398 1056 398 1093 c 0
 398 1136 428 1164 466 1164 c 0
 519 1164 541 1126 541 1093 c 0
 541 1059 514 1024 468 1024 c 0
EndSplineSet
EndChar

StartChar: k
Encoding: 75 107 196
Width: 997
VWidth: 0
GlyphClass: 2
Flags: HW
PickledData: "(dp1
S'com.typemytype.robofont.layerData'
p2
(dp3
s."
LayerCount: 2
Fore
SplineSet
476 400 m 1
 292 400 l 1
 212 0 l 1
 127 0 l 1
 383 1225 l 1
 215 1225 l 1
 227 1283 l 1
 480 1283 l 1
 306 459 l 1
 482 459 l 1
 674 748 l 1
 727 835 762 851 830 851 c 2
 926 851 l 1
 914 790 l 1
 853 790 l 2
 790 790 774 761 747 718 c 1
 550 427 l 1
 620 149 l 2
 631 107 647 46 697 46 c 0
 765 46 798 132.092773438 824 213 c 1
 878 192 l 1
 844 59.3134765625 786 -18 688 -18 c 0
 594 -18 564 50.322265625 542 137 c 2
 476 400 l 1
EndSplineSet
EndChar

StartChar: kgreenlandic
Encoding: 246 312 198
Width: 928
VWidth: 0
GlyphClass: 2
Flags: HW
LayerCount: 2
Fore
SplineSet
438 390 m 1
 255 390 l 1
 175 0 l 1
 90 0 l 1
 257 806 l 1
 88 806 l 1
 101 864 l 1
 354 864 l 1
 269 449 l 1
 444 449 l 1
 627 748 l 2
 680 835 715 850 783 851 c 2
 857 852 l 1
 845 790 l 1
 806 790 l 2
 743 790 731 751 703 708 c 2
 520 417 l 1
 589 158 l 2
 601 116 610 52 660 52 c 0
 728 52 761 135 787 213 c 1
 841 192 l 1
 807 65 749 -9 651 -9 c 0
 557 -9 529 59 505 143 c 1
 438 390 l 1
EndSplineSet
EndChar

StartChar: l
Encoding: 76 108 199
Width: 556
VWidth: 0
GlyphClass: 2
Flags: HW
PickledData: "(dp1
S'com.typemytype.robofont.layerData'
p2
(dp3
s."
AnchorPoint: "top" 603 828 basechar 0
LayerCount: 2
Fore
SplineSet
174 202 m 1
 388 1225 l 1
 219 1225 l 1
 232 1283 l 1
 485 1283 l 1
 259 204 l 2
 254 180 249 151 249 125 c 0
 249 82 263 46 314 46 c 0
 381 46 415 129 439 207 c 1
 493 186 l 1
 461 57.1044921875 403 -18 305 -18 c 0
 212 -18 166 52.34375 166 139 c 0
 166 159 169 180 174 202 c 1
EndSplineSet
EndChar

StartChar: less
Encoding: 28 60 203
Width: 834
VWidth: 0
GlyphClass: 2
Flags: HW
LayerCount: 2
Fore
SplineSet
642 -23 m 1
 -98 637 l 1
 924 1306 l 1
 903 1209 l 1
 19 637 l 1
 662 70 l 1
 642 -23 l 1
EndSplineSet
EndChar

StartChar: logicalnot
Encoding: 106 172 204
Width: 999
VWidth: 0
GlyphClass: 2
Flags: HW
LayerCount: 2
Fore
SplineSet
89 725 m 1
 857 725 l 1
 770 316 l 1
 690 316 l 1
 760 642 l 1
 72 642 l 1
 89 725 l 1
EndSplineSet
EndChar

StartChar: lslash
Encoding: 256 322 205
Width: 754
VWidth: 0
GlyphClass: 2
Flags: HW
LayerCount: 2
Fore
SplineSet
683 960 m 1
 910 1015 l 1
 898 953 l 1
 670 898 l 1
 526 210 l 2
 521 185 516 156 516 129 c 0
 516 87 531 52 581 52 c 0
 648 52 682 135 706 213 c 1
 760 192 l 1
 728 65 670 -9 572 -9 c 0
 478 -9 434 56 434 143 c 0
 434 163 436 187 441 208 c 2
 581 876 l 1
 362 823 l 1
 376 885 l 1
 594 938 l 1
 654 1225 l 1
 485 1225 l 1
 498 1283 l 1
 751 1283 l 1
 683 960 l 1
EndSplineSet
EndChar

StartChar: m
Encoding: 77 109 206
Width: 1565
VWidth: 0
GlyphClass: 2
Flags: HW
PickledData: "(dp1
S'com.typemytype.robofont.layerData'
p2
(dp3
s."
AnchorPoint: "top" 893 828 basechar 0
LayerCount: 2
Fore
SplineSet
849 469 m 2
 757 0 l 1
 668 0 l 1
 779 550 l 1
 785 580 788 608 788 634 c 0
 788 728 747 789 646 789 c 0
 543 789 382 688 339 469 c 2
 247 0 l 1
 162 0 l 1
 313 770 l 1
 150 770 l 1
 162 828 l 1
 406 828 l 1
 364 669 l 1
 433 787 538 851 657 851 c 0
 790 851 859 769 869 657 c 1
 941 773 1046 851 1167 851 c 0
 1298 851 1357 761 1357 632 c 0
 1357 605 1354 576 1349 545 c 1
 1279 190 l 2
 1275 168 1270 141 1270 114 c 0
 1270 73 1282 36 1332 36 c 0
 1386 36 1426 119 1446 197 c 1
 1505 173 l 1
 1476 50 1416 -28 1324 -28 c 0
 1222 -28 1187 48 1187 125 c 0
 1187 143 1188 162 1192 180 c 1
 1265 550 l 1
 1271 584 1275 615 1275 643 c 0
 1275 732 1241 789 1156 789 c 0
 1052 789 891 688 849 469 c 2
EndSplineSet
EndChar

StartChar: macron
Encoding: 109 175 207
Width: 559
VWidth: 0
GlyphClass: 2
Flags: HW
AnchorPoint: "top" 245.045 828.155 mark 0
LayerCount: 2
Fore
SplineSet
57.8525390625 968.256835938 m 1
 73.8525390625 1035.25683594 l 1
 479.852539062 1035.25683594 l 1
 464.852539062 968.256835938 l 1
 57.8525390625 968.256835938 l 1
EndSplineSet
EndChar

StartChar: mu
Encoding: 65543 956 209
Width: 1190
VWidth: 0
GlyphClass: 2
Flags: HW
LayerCount: 2
Fore
SplineSet
836 60 m 1
 1016 60 l 1
 1004 0 l 1
 754 0 l 1
 769 108 l 1
 613 25 523 -14 393 -14 c 0
 307 -14 250 7 214 42 c 1
 154 -242 l 1
 70 -242 l 1
 294 808 l 1
 111 808 l 1
 124 870 l 1
 389 870 l 1
 252 216 l 2
 249 203 249 190 249 176 c 0
 249 105 285 55 415 55 c 0
 550 55 660 114 779 180 c 1
 912 808 l 1
 731 808 l 1
 744 870 l 1
 1008 870 l 1
 836 60 l 1
EndSplineSet
EndChar

StartChar: multiply
Encoding: 149 215 210
Width: 629
VWidth: 0
GlyphClass: 2
Flags: HW
LayerCount: 2
Fore
SplineSet
94 799 m 1
 150 845 l 1
 316 634 l 1
 574 847 l 1
 610 800 l 1
 355 588 l 1
 519 375 l 1
 464 329 l 1
 297 542 l 1
 41 330 l 1
 4 376 l 1
 261 588 l 1
 94 799 l 1
EndSplineSet
EndChar

StartChar: n
Encoding: 78 110 211
Width: 1091
VWidth: 0
GlyphClass: 2
Flags: HW
PickledData: "(dp1
S'com.typemytype.robofont.layerData'
p2
(dp3
s."
AnchorPoint: "top" 683 828 basechar 0
LayerCount: 2
Fore
SplineSet
155 0 m 1
 306 770 l 1
 143 770 l 1
 156 828 l 1
 399 828 l 1
 357 669 l 1
 432 782 541 851 670 851 c 0
 821 851 885 759 885 637 c 0
 885 608 881 577 874 545 c 1
 793 202 l 2
 788 183 782 153 782 125 c 0
 782 87 794 52 840 52 c 0
 907 52 945 134 965 210 c 1
 1023 188 l 1
 996 64 930 -9 830 -9 c 0
 740 -9 703 60 703 138 c 0
 703 159 705 180 710 201 c 2
 795 550 l 2
 802 578 806 607 806 633 c 0
 806 720 765 789 657 789 c 0
 548 789 375 688 332 469 c 2
 240 0 l 1
 155 0 l 1
EndSplineSet
EndChar

StartChar: nine
Encoding: 25 57 214
Width: 958
VWidth: 0
GlyphClass: 2
Flags: HW
LayerCount: 2
Fore
SplineSet
210 -134 m 1
 150 -86 l 1
 657 576 l 1
 581 543 509 526 442 526 c 0
 254 526 115 653 115 824 c 0
 115 1058 330 1306 624 1306 c 0
 803 1306 955 1182 955 1001 c 0
 955 821 737 569 728 557 c 2
 210 -134 l 1
874 993 m 0
 874 1123 793 1231 609 1231 c 0
 370 1231 203 1049 203 838 c 0
 203 679 327 598 469 598 c 0
 640 598 874 733 874 993 c 0
EndSplineSet
EndChar

StartChar: numbersign
Encoding: 3 35 216
Width: 1014
VWidth: 0
GlyphClass: 2
Flags: HW
LayerCount: 2
Fore
SplineSet
365 854 m 1
 254 475 l 1
 633 475 l 1
 744 854 l 1
 365 854 l 1
119 916 m 1
 302 916 l 1
 410 1284 l 1
 491 1284 l 1
 383 916 l 1
 763 916 l 1
 871 1284 l 1
 953 1284 l 1
 845 916 l 1
 1041 916 l 1
 1022 854 l 1
 827 854 l 1
 715 475 l 1
 910 475 l 1
 891 414 l 1
 696 414 l 1
 575 0 l 1
 492 0 l 1
 615 414 l 1
 234 414 l 1
 113 0 l 1
 30 0 l 1
 153 414 l 1
 -31 414 l 1
 -11 475 l 1
 171 475 l 1
 282 854 l 1
 101 854 l 1
 119 916 l 1
EndSplineSet
EndChar

StartChar: o
Encoding: 79 111 217
Width: 1080
VWidth: 0
GlyphClass: 2
Flags: HW
PickledData: "(dp1
S'com.typemytype.robofont.layerData'
p2
(dp3
s."
HStem: -18 61<398.045 657.833> 789 62<485.819 737.363>
VStem: 177 82<174.652 543.003> 878 74<288.638 646.113>
AnchorPoint: "bot" 523 0 basechar 0
AnchorPoint: "top" 603 828 basechar 0
LayerCount: 2
Fore
SplineSet
878 478 m 0
 878 640.41796875 795 786 611 786 c 0
 395 786 259 550.6015625 259 345 c 0
 259 186.58984375 340 46 529 46 c 0
 749 46 878 274.4140625 878 478 c 0
177 345 m 0
 177 583 343 851 611 851 c 0
 846 851 952 674 952 479 c 0
 952 243 796 -18 528 -18 c 0
 283 -18 177 154 177 345 c 0
EndSplineSet
EndChar

StartChar: oe
Encoding: 273 339 221
Width: 1565
VWidth: 0
GlyphClass: 2
Flags: HW
LayerCount: 2
Fore
SplineSet
1413 542 m 0
 1413 684 1322 789 1184 789 c 0
 1034 789 894 678 849 476 c 1
 1407 476 l 1
 1411 500 1413 521 1413 542 c 0
760 469 m 0
 760 631 687 789 496 789 c 0
 264 789 146 566 146 356 c 0
 146 216 222 43 414 43 c 0
 653 43 760 271 760 469 c 0
61 356 m 0
 61 615 227 851 496 851 c 0
 659 851 774 750 819 610 c 1
 885 747 1010 851 1182 851 c 0
 1366 851 1481 711 1481 532 c 0
 1481 503 1475 440 1469 420 c 1
 840 420 l 1
 840 420 833 382 833 358 c 0
 833 156 958 43 1103 43 c 0
 1201 43 1310 95 1396 208 c 1
 1446 170 l 1
 1359 43 1225 -18 1100 -18 c 0
 962 -18 831 59 781 212 c 1
 714 75 587 -18 413 -18 c 0
 181 -18 61 164 61 356 c 0
EndSplineSet
EndChar

StartChar: ogonek
Encoding: 366 731 222
Width: 539
VWidth: 0
GlyphClass: 2
Flags: HW
AnchorPoint: "bot" 267 0 mark 0
LayerCount: 2
Fore
SplineSet
243 0 m 1
 298 0 l 1
 206 -71 160 -151 160 -211 c 0
 160 -268 206 -290 263 -290 c 0
 301 -290 342 -279 377 -266 c 1
 364 -332 l 1
 313 -362 253 -378 201 -378 c 0
 123 -378 61 -344 61 -269 c 0
 61 -185 141 -65 243 0 c 1
EndSplineSet
EndChar

StartChar: one
Encoding: 17 49 225
Width: 559
VWidth: 0
GlyphClass: 2
Flags: HW
LayerCount: 2
Fore
SplineSet
211 64 m 1
 388 64 l 1
 374 0 l 1
 -70 0 l 1
 -57 64 l 1
 128 64 l 1
 366 1193 l 1
 196 1163 l 1
 196 1234 l 1
 471 1284 l 1
 211 64 l 1
EndSplineSet
EndChar

StartChar: onehalf
Encoding: 123 189 226
Width: 1618
VWidth: 0
GlyphClass: 3
Flags: HW
LayerCount: 2
Fore
SplineSet
354 -23 m 1
 1024 1306 l 1
 1098 1306 l 1
 433 -23 l 1
 354 -23 l 1
1526 713 m 0
 1526 798 1469 845 1368 845 c 0
 1214 845 1118 734 1118 557 c 1
 1037 557 l 1
 1037 780 1198 917 1386 917 c 0
 1523 917 1608 848 1608 727 c 0
 1608 707 1606 684 1601 661 c 0
 1560 467 1170 199 1021 74 c 1
 1435 74 l 1
 1419 1 l 1
 893 1 l 1
 907 72 l 1
 1011 158 1526 486 1526 713 c 0
200 444 m 1
 323 444 l 1
 309 379 l 1
 -16 379 l 1
 -3 444 l 1
 124 444 l 1
 284 1198 l 1
 169 1178 l 1
 169 1245 l 1
 380 1284 l 1
 200 444 l 1
EndSplineSet
Ligature2: "fracDiagonalFractionslookup2 subtable" one slash two
EndChar

StartChar: onequarter
Encoding: 122 188 227
Width: 1462
VWidth: 0
GlyphClass: 3
Flags: HW
LayerCount: 2
Fore
SplineSet
356 -23 m 1
 1026 1306 l 1
 1100 1306 l 1
 435 -23 l 1
 356 -23 l 1
902 336 m 1
 1180 336 l 1
 1279 799 l 1
 1153 645 1027 491 902 336 c 1
804 270 m 1
 807 328 l 1
 1281 901 l 1
 1376 901 l 1
 1256 336 l 1
 1441 336 l 1
 1427 270 l 1
 1242 270 l 1
 1197 63 l 1
 1314 63 l 1
 1301 0 l 1
 992 0 l 1
 1005 63 l 1
 1121 63 l 1
 1166 270 l 1
 804 270 l 1
200 444 m 1
 323 444 l 1
 309 379 l 1
 -16 379 l 1
 -3 444 l 1
 124 444 l 1
 284 1198 l 1
 169 1178 l 1
 169 1245 l 1
 380 1284 l 1
 200 444 l 1
EndSplineSet
Ligature2: "fracDiagonalFractionslookup2 subtable" one slash four
EndChar

StartChar: onesuperior
Encoding: 119 185 228
Width: 573
VWidth: 0
GlyphClass: 2
Flags: HW
LayerCount: 2
Fore
SplineSet
252 63 m 1
 374 63 l 1
 361 0 l 1
 37 0 l 1
 49 63 l 1
 176 63 l 1
 337 819 l 1
 225 798 l 1
 221 866 l 1
 432 904 l 1
 252 63 l 1
EndSplineSet
EndChar

StartChar: ordfeminine
Encoding: 104 170 229
Width: 821
VWidth: 0
GlyphClass: 2
Flags: HW
LayerCount: 2
Fore
SplineSet
586 954 m 1
 564 959 498 969 440 969 c 0
 356 969 214 967 214 826 c 0
 214 779 243 734 336 734 c 0
 415 734 484 750 554 803 c 1
 586 954 l 1
315 667 m 0
 190 667 135 731 135 812 c 0
 135 1008 316 1036 447 1036 c 0
 499 1036 548 1028 599 1018 c 1
 617 1098 l 2
 621 1114 623 1129 623 1142 c 0
 623 1215 571 1240 486 1240 c 0
 398 1240 326 1216 270 1168 c 1
 245 1229 l 1
 316 1285 401 1306 500 1306 c 0
 660 1306 700 1230 700 1157 c 0
 700 1141 698 1125 695 1110 c 2
 616 738 l 1
 727 738 l 1
 714 676 l 1
 539 676 l 1
 542 736 l 1
 469 693 395 667 315 667 c 0
EndSplineSet
EndChar

StartChar: ordmasculine
Encoding: 120 186 230
Width: 918
VWidth: 0
GlyphClass: 2
Flags: HW
LayerCount: 2
Fore
SplineSet
561 1306 m 0
 706 1306 835 1225 835 1063 c 0
 835 805 605 667 426 667 c 0
 281 667 154 750 154 913 c 0
 154 1170 382 1306 561 1306 c 0
233 927 m 0
 233 799 330 734 441 734 c 0
 577 734 756 843 756 1049 c 0
 756 1175 658 1240 548 1240 c 0
 410 1240 233 1132 233 927 c 0
EndSplineSet
EndChar

StartChar: oslash
Encoding: 182 248 231
Width: 1080
VWidth: 0
GlyphClass: 2
Flags: HW
HStem: -18 61<398.045 657.833> 789 62<485.819 737.363>
VStem: 177 82<174.652 543.003> 878 74<288.638 646.113>
LayerCount: 2
Fore
SplineSet
896 967 m 1
 939 939 l 1
 251 -117 l 1
 208 -87 l 1
 896 967 l 1
EndSplineSet
Refer: 217 111 N 1 0 0 1 0 0 2
EndChar

StartChar: p
Encoding: 80 112 233
Width: 1055
VWidth: 0
GlyphClass: 2
Flags: HW
PickledData: "(dp1
S'com.typemytype.robofont.layerData'
p2
(dp3
s."
AnchorPoint: "top" 603 828 basechar 0
LayerCount: 2
Fore
SplineSet
105 -268 m 1
 315 771 l 1
 146 771 l 1
 159 828 l 1
 413 828 l 1
 381 686 l 1
 441 793 553 851 662 851 c 0
 857 851 948 678 948 486 c 0
 948 248 808 -18 555 -18 c 0
 431 -18 311 65 282 233 c 1
 187 -268 l 1
 386 -268 l 1
 373 -329 l 1
 -80 -329 l 1
 -66 -268 l 1
 105 -268 l 1
666 786 m 0
 449 786 316 566.506835938 316 349 c 0
 316 189.578125 390 46 557 46 c 4
 759 46 874 287.38671875 874 495 c 0
 874 650.3984375 809 786 666 786 c 0
EndSplineSet
EndChar

StartChar: paragraph
Encoding: 116 182 234
Width: 1026
VWidth: 0
GlyphClass: 2
Flags: HW
LayerCount: 2
Fore
SplineSet
575 -23 m 1
 844.5 1216.29980469 l 1
 640.5 1216.29980469 l 1
 371 -23 l 1
 288 -23 l 1
 439 687 l 1
 401 687 l 2
 198 687 106 804 106 934 c 0
 106 1095 261 1284 527 1284 c 2
 1111 1284 l 1
 1096 1218 l 1
 923 1218 l 1
 660 -23 l 1
 575 -23 l 1
EndSplineSet
EndChar

StartChar: parenleft
Encoding: 8 40 235
Width: 543
VWidth: 0
GlyphClass: 2
Flags: HW
LayerCount: 2
Fore
SplineSet
61 438 m 0
 61 504 69 571 84 641 c 0
 150 947 352 1249 646 1319 c 1
 631 1248 l 1
 306 1139 149 739 149 435 c 0
 149 253 210 96 372 33 c 1
 358 -39 l 1
 152 15 61 209 61 438 c 0
EndSplineSet
EndChar

StartChar: parenright
Encoding: 9 41 236
Width: 551
VWidth: 0
GlyphClass: 2
Flags: HW
LayerCount: 2
Fore
SplineSet
183 1319 m 1
 388 1265 477 1072 477 844 c 0
 477 424 232 42 -106 -39 c 1
 -92 33 l 1
 234 141 390 542 390 848 c 0
 390 1028 328 1185 167 1248 c 1
 183 1319 l 1
EndSplineSet
EndChar

StartChar: percent
Encoding: 5 37 237
Width: 1640
VWidth: 0
GlyphClass: 2
Flags: HW
LayerCount: 2
Fore
SplineSet
1273 613 m 0
 1418 613 1546 531 1546 369 c 0
 1546 111 1313 -27 1137 -27 c 0
 990 -27 866 57 866 219 c 0
 866 477 1093 613 1273 613 c 0
944 232 m 0
 944 105 1040 42 1151 42 c 0
 1286 42 1468 150 1468 355 c 0
 1468 481 1369 548 1258 548 c 0
 1120 548 944 438 944 232 c 0
544 1306 m 0
 689 1306 818 1225 818 1063 c 0
 818 804 587 667 410 667 c 0
 264 667 137 750 137 913 c 0
 137 1170 365 1306 544 1306 c 0
216 927 m 0
 216 799 313 734 424 734 c 0
 561 734 739 843 739 1049 c 0
 739 1175 641 1240 531 1240 c 0
 393 1240 216 1132 216 927 c 0
129 0 m 1
 1568 1363 l 1
 1602 1321 l 1
 166 -49 l 1
 129 0 l 1
EndSplineSet
EndChar

StartChar: period
Encoding: 14 46 238
Width: 449
VWidth: 0
GlyphClass: 2
Flags: HW
LayerCount: 2
Fore
SplineSet
124 124 m 1
 244 124 l 1
 219 0 l 1
 96 0 l 1
 124 124 l 1
EndSplineSet
EndChar

StartChar: periodcentered
Encoding: 117 183 239
Width: 272
VWidth: 0
GlyphClass: 2
Flags: HW
AnchorPoint: "top" 160 828 mark 0
LayerCount: 2
Fore
SplineSet
89 848 m 1
 210 848 l 1
 184 723 l 1
 61 723 l 1
 89 848 l 1
EndSplineSet
EndChar

StartChar: plus
Encoding: 11 43 240
Width: 799
VWidth: 0
GlyphClass: 2
Flags: HW
LayerCount: 2
Fore
SplineSet
507 1022 m 1
 424 622 l 1
 793 622 l 1
 778 556 l 1
 409 556 l 1
 322 144 l 1
 257 144 l 1
 344 556 l 1
 -27 556 l 1
 -13 622 l 1
 359 622 l 1
 443 1022 l 1
 507 1022 l 1
EndSplineSet
EndChar

StartChar: plusminus
Encoding: 111 177 241
Width: 877
VWidth: 0
GlyphClass: 2
Flags: HW
LayerCount: 2
Fore
SplineSet
564 1022 m 1
 479 622 l 1
 849 622 l 1
 835 556 l 1
 465 556 l 1
 377 144 l 1
 313 144 l 1
 400 556 l 1
 29 556 l 1
 45 622 l 1
 415 622 l 1
 499 1022 l 1
 564 1022 l 1
715 0 m 1
 729 64 l 1
 -77 64 l 1
 -90 0 l 1
 715 0 l 1
EndSplineSet
EndChar

StartChar: q
Encoding: 81 113 242
Width: 1042
VWidth: 0
GlyphClass: 2
Flags: HW
PickledData: "(dp1
S'com.typemytype.robofont.layerData'
p2
(dp3
s."
LayerCount: 2
Fore
SplineSet
473 46 m 0
 684 46 813 266.483398438 813 482 c 0
 813 642.94140625 738 786 572 786 c 0
 365 786 244 548.071289062 244 342 c 0
 244 184.595703125 315 46 473 46 c 0
484 -329 m 1
 498 -268 l 1
 663 -268 l 1
 748 145 l 1
 689 39 581 -18 477 -18 c 0
 268 -18 171 158 171 352 c 0
 171 588.473632812 315 851 574 851 c 0
 698 851 818 766.666992188 847 598 c 1
 886 828 l 1
 970 828 l 1
 750 -268 l 1
 918 -268 l 1
 906 -329 l 1
 484 -329 l 1
EndSplineSet
EndChar

StartChar: question
Encoding: 31 63 243
Width: 731
VWidth: 0
GlyphClass: 2
Flags: HW
LayerCount: 2
Fore
SplineSet
222 58 m 1
 206 -23 l 1
 118 -23 l 1
 136 58 l 1
 222 58 l 1
154 1044 m 1
 98 1082 l 1
 184 1215 319 1272 453 1272 c 0
 609 1272 727 1179 727 1028 c 0
 727 1007 725 983 720 960 c 0
 652 636 352 723 238 301 c 1
 203 301 l 1
 301 760 583 691 640 960 c 1
 645 978 646 996 646 1014 c 0
 646 1113 585 1197 441 1197 c 0
 308 1197 210 1134 154 1044 c 1
EndSplineSet
EndChar

StartChar: questiondown
Encoding: 125 191 244
Width: 694
VWidth: 0
GlyphClass: 2
Flags: HW
LayerCount: 2
Fore
SplineSet
482 1190 m 1
 498 1272 l 1
 586 1272 l 1
 569 1190 l 1
 482 1190 l 1
550 204 m 1
 606 166 l 1
 521 34 385 -23 251 -23 c 0
 93 -23 -23 68 -23 219 c 0
 -23 242 -21 264 -16 289 c 0
 52 612 352 525 467 948 c 1
 501 948 l 1
 403 489 122 558 65 289 c 0
 61 269 59 252 59 234 c 0
 59 135 120 51 264 51 c 0
 396 51 494 114 550 204 c 1
EndSplineSet
EndChar

StartChar: quotedbl
Encoding: 2 34 245
Width: 600
VWidth: 0
GlyphClass: 2
Flags: HW
LayerCount: 2
Fore
SplineSet
342 1284 m 1
 224 888 l 1
 190 888 l 1
 246 1284 l 1
 342 1284 l 1
543 1284 m 1
 425 888 l 1
 391 888 l 1
 448 1284 l 1
 543 1284 l 1
EndSplineSet
EndChar

StartChar: quotedblbase
Encoding: 402 8222 246
Width: 723
VWidth: 0
GlyphClass: 2
Flags: HW
LayerCount: 2
Fore
SplineSet
396 120 m 1
 526 120 l 1
 500 -6 l 1
 477 -108 424 -188 320 -188 c 1
 331 -142 l 1
 404 -118 414 -92 433 -4 c 1
 369 -4 l 1
 396 120 l 1
135 120 m 1
 265 120 l 1
 239 -6 l 1
 216 -108 164 -188 59 -188 c 1
 69 -142 l 1
 143 -118 154 -92 172 -4 c 1
 108 -4 l 1
 135 120 l 1
EndSplineSet
EndChar

StartChar: quotedblleft
Encoding: 400 8220 247
Width: 678
VWidth: 0
GlyphClass: 2
Flags: HW
LayerCount: 2
Fore
SplineSet
312 997 m 1
 180 997 l 1
 208 1125 l 1
 229 1228 282 1306 387 1306 c 1
 378 1260 l 1
 305 1237 293 1210 275 1123 c 1
 338 1123 l 1
 312 997 l 1
546 997 m 1
 416 997 l 1
 442 1125 l 1
 465 1228 518 1306 623 1306 c 1
 614 1260 l 1
 539 1237 529 1210 511 1123 c 1
 574 1123 l 1
 546 997 l 1
EndSplineSet
EndChar

StartChar: quotedblright
Encoding: 401 8221 248
Width: 686
VWidth: 0
GlyphClass: 2
Flags: HW
LayerCount: 2
Fore
SplineSet
491 1284 m 1
 623 1284 l 1
 595 1156 l 1
 574 1054 521 974 416 974 c 1
 425 1022 l 1
 498 1043 510 1072 528 1159 c 1
 465 1159 l 1
 491 1284 l 1
257 1284 m 1
 387 1284 l 1
 361 1156 l 1
 338 1054 285 974 180 974 c 1
 189 1022 l 1
 264 1043 274 1072 292 1159 c 1
 229 1159 l 1
 257 1284 l 1
EndSplineSet
EndChar

StartChar: quoteleft
Encoding: 397 8216 249
Width: 442
VWidth: 0
GlyphClass: 2
Flags: HW
LayerCount: 2
Fore
SplineSet
312 997 m 1
 180 997 l 1
 208 1125 l 1
 229 1228 282 1306 387 1306 c 1
 378 1260 l 1
 304 1237 293 1210 275 1123 c 1
 338 1123 l 1
 312 997 l 1
EndSplineSet
EndChar

StartChar: quoteright
Encoding: 398 8217 250
Width: 451
VWidth: 0
GlyphClass: 2
Flags: HW
LayerCount: 2
Fore
SplineSet
257 1284 m 1
 387 1284 l 1
 361 1156 l 1
 338 1054 285 974 180 974 c 1
 189 1022 l 1
 264 1043 274 1072 292 1159 c 1
 229 1159 l 1
 257 1284 l 1
EndSplineSet
EndChar

StartChar: quotesinglbase
Encoding: 399 8218 251
Width: 463
VWidth: 0
GlyphClass: 2
Flags: HW
LayerCount: 2
Fore
SplineSet
135 120 m 1
 265 120 l 1
 239 -6 l 1
 216 -108 164 -188 59 -188 c 1
 69 -142 l 1
 143 -118 154 -92 172 -4 c 1
 108 -4 l 1
 135 120 l 1
EndSplineSet
EndChar

StartChar: quotesingle
Encoding: 7 39 252
Width: 399
VWidth: 0
GlyphClass: 2
Flags: HW
LayerCount: 2
Fore
SplineSet
342 1284 m 1
 224 888 l 1
 190 888 l 1
 246 1284 l 1
 342 1284 l 1
EndSplineSet
EndChar

StartChar: r
Encoding: 82 114 253
Width: 776
VWidth: 0
GlyphClass: 2
Flags: HW
PickledData: "(dp1
S'com.typemytype.robofont.layerData'
p2
(dp3
s."
AnchorPoint: "top" 602.793 813 basechar 0
LayerCount: 2
Fore
SplineSet
364 669 m 1
 429.951171875 772.686523438 530.876953125 836 643.79296875 836 c 0
 708.79296875 836 721.79296875 806 721.79296875 733 c 2
 721.79296875 651 l 1
 652.79296875 638 l 1
 652.79296875 658 653.79296875 675 653.79296875 689 c 0
 653.79296875 764 650.79296875 774 624.79296875 774 c 0
 533.858398438 774 379.969726562 675.828125 338 469 c 2
 246 0 l 1
 160 0 l 1
 312 770 l 1
 150 770 l 1
 162 828 l 1
 405 828 l 1
 364 669 l 1
EndSplineSet
EndChar

StartChar: registered
Encoding: 108 174 257
Width: 1473
VWidth: 0
GlyphClass: 2
Flags: HW
LayerCount: 2
Fore
SplineSet
1417 796 m 0
 1417 419 1108 -23 592 -23 c 0
 216 -23 47 213 47 488 c 0
 47 865 364 1309 874 1309 c 0
 1249 1309 1417 1071 1417 796 c 0
1342 779 m 0
 1342 1028 1191 1247 861 1247 c 0
 396 1247 124 827 124 491 c 0
 124 242 271 36 604 36 c 0
 1056 36 1342 442 1342 779 c 0
634 968 m 1
 571 674 l 1
 796 674 l 2
 913 674 986 770 986 850 c 0
 986 914 947 968 858 968 c 2
 634 968 l 1
324 268 m 1
 337 328 l 1
 427 328 l 1
 561 968 l 1
 464 968 l 1
 479 1028 l 1
 871 1028 l 2
 999 1028 1056 952 1056 866 c 0
 1056 756 963 623 804 614 c 1
 918 328 l 1
 1024 328 l 1
 1011 268 l 1
 854 268 l 1
 723 614 l 1
 558 614 l 1
 498 328 l 1
 598 328 l 1
 585 268 l 1
 324 268 l 1
EndSplineSet
EndChar

StartChar: ring
Encoding: 365 730 258
Width: 473
VWidth: 0
GlyphClass: 2
Flags: HW
AnchorPoint: "top" 160 828 mark 0
LayerCount: 2
Fore
SplineSet
230 1287 m 0
 332 1287 379 1218 379 1142 c 0
 379 1051 312 952 193 952 c 0
 90 952 43 1021 43 1097 c 0
 43 1188 110 1287 230 1287 c 0
197 995 m 0
 283 995 329 1065 329 1131 c 0
 329 1189 295 1244 225 1244 c 0
 139 1244 94 1175 94 1109 c 0
 94 1051 127 995 197 995 c 0
EndSplineSet
EndChar

StartChar: s
Encoding: 83 115 259
Width: 801
VWidth: 0
GlyphClass: 2
Flags: HW
PickledData: "(dp1
S'com.typemytype.robofont.layerData'
p2
(dp3
s."
AnchorPoint: "bot" 365 0 basechar 0
AnchorPoint: "top" 492 828 basechar 0
LayerCount: 2
Fore
SplineSet
550 204 m 0
 550 397 237 428 237 628 c 0
 237 771 350 851 485 851 c 0
 580 851 685 810 679 761 c 2
 665 652 l 1
 594 633 l 1
 606 753 l 2
 607 762.307617188 553 786 482 786 c 0
 386 786 319 729.254882812 319 635 c 0
 319 550 399 498 478 439 c 0
 557 380 636 313 636 199 c 0
 636 60 508 -18 357 -18 c 0
 260 -18 148 28 148 91 c 0
 148 92 149 94 163 202 c 1
 236 214 l 1
 222 112 220 110 220 108 c 0
 220 66.03125 294 46 376 46 c 0
 463 46 550 89.1796875 550 204 c 0
EndSplineSet
EndChar

StartChar: section
Encoding: 101 167 263
Width: 971
VWidth: 0
GlyphClass: 2
Flags: HW
LayerCount: 2
Fore
SplineSet
638 457 m 1
 699 480 752 541 752 620 c 0
 752 764 477 745 345 788 c 1
 291 769 219 702 219 613 c 0
 219 483 466 498 638 457 c 1
838 644 m 0
 838 535 773 466 689 423 c 1
 733 395 758 349 758 297 c 0
 758 177 641 39 365 39 c 0
 250 39 144 68 95 130 c 1
 81 54 l 1
 8 54 l 1
 60 295 l 1
 132 295 l 1
 116 228 l 1
 139 149 264 108 386 108 c 0
 580 108 676 203 676 286 c 0
 676 484 133 347 133 593 c 0
 133 694 200 774 284 814 c 1
 236 841 205 877 205 936 c 0
 205 1112 393 1187 563 1187 c 0
 663 1187 759 1165 811 1107 c 1
 823 1169 l 1
 896 1169 l 1
 846 932 l 1
 773 932 l 1
 792 1023 l 1
 757 1085 664 1117 568 1117 c 0
 431 1117 294 1070 294 957 c 0
 294 760 838 909 838 644 c 0
EndSplineSet
EndChar

StartChar: semicolon
Encoding: 27 59 264
Width: 492
VWidth: 0
GlyphClass: 2
Flags: HW
LayerCount: 2
Fore
SplineSet
259 848 m 1
 380 848 l 1
 353 723 l 1
 231 723 l 1
 259 848 l 1
143 328 m 1
 275 328 l 1
 248 201 l 2
 226 98 173 19 68 19 c 1
 77 66 l 1
 152 89 162 116 180 204 c 1
 117 204 l 1
 143 328 l 1
EndSplineSet
EndChar

StartChar: seven
Encoding: 23 55 265
Width: 901
VWidth: 0
GlyphClass: 2
Flags: HW
LayerCount: 2
Fore
SplineSet
915 1211 m 1
 262 1211 l 1
 207 953 l 1
 128 953 l 1
 198 1284 l 1
 1022 1284 l 1
 1005 1205 l 1
 574 824 415 486 323 54 c 1
 512 54 l 1
 498 -11 l 1
 53 -11 l 1
 67 54 l 1
 239 54 l 1
 306 376 453 792 915 1211 c 1
EndSplineSet
EndChar

StartChar: six
Encoding: 22 54 266
Width: 874
VWidth: 0
GlyphClass: 2
Flags: HW
LayerCount: 2
Fore
SplineSet
703 1416 m 1
 762 1367 l 1
 257 706 l 1
 330 738 405 756 470 756 c 0
 660 756 798 629 798 459 c 0
 798 223 582 -23 289 -23 c 0
 109 -23 -43 98 -43 280 c 0
 -43 460 174 712 184 725 c 2
 703 1416 l 1
39 288 m 0
 39 159 119 51 305 51 c 0
 544 51 710 234 710 445 c 0
 710 604 585 684 444 684 c 0
 270 684 39 547 39 288 c 0
EndSplineSet
EndChar

StartChar: slash
Encoding: 15 47 267
Width: 537
VWidth: 0
GlyphClass: 2
Flags: HW
LayerCount: 2
Fore
SplineSet
-113 -23 m 1
 556 1306 l 1
 630 1306 l 1
 -35 -23 l 1
 -113 -23 l 1
EndSplineSet
EndChar

StartChar: sterling
Encoding: 97 163 269
Width: 1069
VWidth: 0
GlyphClass: 2
Flags: HW
LayerCount: 2
Fore
SplineSet
342 160 m 1
 306 219 234 254 158 254 c 0
 75 254 -29 208 -29 98 c 0
 -29 35 28 7 92 7 c 0
 185 7 296 57 342 160 c 1
381 635 m 1
 355 719 325 810 325 899 c 0
 325 1157 528 1306 768 1306 c 0
 950 1306 1044 1225 1044 1086 c 0
 1044 1062 1041 1035 1034 1007 c 1
 955 1007 l 1
 961 1031 964 1054 964 1076 c 0
 964 1173 907 1237 761 1237 c 0
 556 1237 418 1126 418 914 c 0
 418 819 455 736 485 635 c 1
 875 635 l 1
 865 584 l 1
 492 584 l 1
 497 545 500 508 500 470 c 0
 500 368 478 265 422 162 c 1
 468 82 551 46 645 46 c 0
 793 46 860 154 885 272 c 1
 937 272 l 1
 925 105 808 -31 633 -31 c 0
 532 -31 447 12 394 111 c 1
 302 -34 135 -49 86 -49 c 0
 -49 -49 -104 11 -104 88 c 0
 -104 244 51 312 166 312 c 0
 254 312 336 275 368 212 c 1
 400 289 413 365 413 438 c 0
 413 489 407 538 397 584 c 1
 139 584 l 1
 149 635 l 1
 381 635 l 1
EndSplineSet
EndChar

StartChar: t
Encoding: 84 116 270
Width: 668
VWidth: 0
GlyphClass: 2
Flags: HW
PickledData: "(dp1
S'com.typemytype.robofont.layerData'
p2
(dp3
s."
AnchorPoint: "bot" 314 -6 basechar 0
LayerCount: 2
Fore
SplineSet
143 770 m 1
 158 828 l 1
 320 828 l 1
 386 1141 l 1
 477 1177 l 1
 403 828 l 1
 576 828 l 1
 560 770 l 1
 392 770 l 1
 273 204 l 1
 267 180 262 152 262 126 c 0
 262 83 277 46 328 46 c 0
 395 46 429 129 453 207 c 1
 507 186 l 1
 474 59 415 -15 318 -15 c 0
 226 -15 181 54 181 139 c 0
 181 159 183 180 188 202 c 1
 307 770 l 1
 143 770 l 1
EndSplineSet
EndChar

StartChar: thorn
Encoding: 188 254 273
Width: 1120
VWidth: 0
GlyphClass: 2
Flags: HW
LayerCount: 2
Fore
SplineSet
527 55 m 0
 777 55 938 255 977 444 c 0
 983 473 986 504 986 531 c 0
 986 696 882 819 687 819 c 0
 556 819 442 786 272 644 c 1
 179 201 l 1
 305 86 401 55 527 55 c 0
171 1284 m 1
 409 1284 l 1
 289 723 l 1
 387 816 542 888 698 888 c 0
 953 888 1072 728 1072 544 c 0
 1072 343 897 -14 510 -14 c 0
 338 -14 201 75 163 130 c 1
 53 -374 l 1
 -197 -374 l 1
 -184 -312 l 1
 -12 -312 l 1
 313 1221 l 1
 158 1221 l 1
 171 1284 l 1
EndSplineSet
EndChar

StartChar: three
Encoding: 19 51 274
Width: 969
VWidth: 0
GlyphClass: 2
Flags: HW
LayerCount: 2
Fore
SplineSet
306 725 m 1
 378 725 l 2
 559 725 825 748 825 1020 c 0
 825 1161 690 1231 549 1231 c 0
 416 1231 282 1192 192 1068 c 1
 124 1100 l 1
 235 1249 406 1307 567 1307 c 0
 744 1307 915 1212 915 1033 c 0
 915 857 779 731 622 686 c 1
 742 657 811 561 811 439 c 0
 811 162 522 -19 284 -19 c 0
 110 -19 -43 62 -88 224 c 1
 -11 267 l 1
 29 123 151 52 309 52 c 0
 511 52 723 211 723 437 c 0
 723 631 513 642 328 642 c 2
 287 642 l 1
 306 725 l 1
EndSplineSet
EndChar

StartChar: threequarters
Encoding: 124 190 275
Width: 1765
VWidth: 0
GlyphClass: 3
Flags: HW
LayerCount: 2
Fore
SplineSet
604 -23 m 1
 1274 1306 l 1
 1347 1306 l 1
 683 -23 l 1
 604 -23 l 1
1483 336 m 1
 1205 336 l 1
 1333 496 1452 641 1582 799 c 1
 1483 336 l 1
255 898 m 1
 321 898 l 2
 438 898 608 914 608 1087 c 0
 608 1179 521 1225 427 1225 c 0
 341 1225 250 1197 186 1110 c 1
 125 1141 l 1
 208 1255 330 1297 444 1297 c 0
 572 1297 692 1228 692 1101 c 0
 692 985 611 900 512 863 c 1
 582 834 620 772 620 695 c 0
 620 498 418 366 245 366 c 0
 122 366 14 427 -20 548 c 1
 53 588 l 1
 80 484 162 435 267 435 c 0
 397 435 540 539 540 684 c 0
 540 814 398 821 276 821 c 2
 238 821 l 1
 255 898 l 1
1110 328 m 1
 1107 270 l 1
 1469 270 l 1
 1424 63 l 1
 1308 63 l 1
 1295 0 l 1
 1604 0 l 1
 1617 63 l 1
 1500 63 l 1
 1545 270 l 1
 1730 270 l 1
 1744 336 l 1
 1558 336 l 1
 1679 901 l 1
 1584 901 l 1
 1110 328 l 1
EndSplineSet
Ligature2: "fracDiagonalFractionslookup2 subtable" three slash four
EndChar

StartChar: threesuperior
Encoding: 113 179 276
Width: 846
VWidth: 0
GlyphClass: 2
Flags: HW
LayerCount: 2
Fore
SplineSet
294 518 m 1
 360 518 l 2
 478 518 649 536 649 709 c 0
 649 800 560 845 466 845 c 0
 380 845 290 818 226 730 c 1
 164 762 l 1
 247 875 369 918 483 918 c 0
 611 918 731 848 731 721 c 0
 731 607 651 521 551 482 c 1
 622 455 659 392 659 313 c 0
 659 117 456 -13 285 -13 c 0
 162 -13 53 48 20 167 c 1
 92 208 l 1
 119 105 202 55 307 55 c 0
 438 55 579 160 579 306 c 0
 579 433 438 441 316 441 c 2
 278 441 l 1
 294 518 l 1
EndSplineSet
EndChar

StartChar: tilde
Encoding: 367 732 277
Width: 473
VWidth: 0
GlyphClass: 2
Flags: HW
AnchorPoint: "top" 160 828 mark 0
LayerCount: 2
Fore
SplineSet
274 961 m 0
 273 961 272 961 271 961 c 0
 200 961 124 1006 64 1006 c 0
 35 1006 9 995 -9 962 c 1
 -49 962 l 1
 -19 1049 16 1071 79 1071 c 0
 180 1071 201 1026 277 1026 c 0
 316 1026 344 1053 360 1081 c 1
 399 1081 l 1
 369 1000 348 962 274 961 c 0
EndSplineSet
EndChar

StartChar: trademark
Encoding: 412 8482 278
Width: 1712
VWidth: 0
GlyphClass: 2
Flags: HW
LayerCount: 2
Fore
SplineSet
1175 664 m 1
 1037 1160 l 1
 936 687 l 1
 1020 687 l 1
 1010 636 l 1
 784 636 l 1
 795 687 l 1
 877 687 l 1
 993 1235 l 1
 912 1235 l 1
 922 1286 l 1
 1069 1286 l 1
 1202 790 l 1
 1313 953 1427 1124 1537 1286 c 1
 1683 1286 l 1
 1673 1235 l 1
 1592 1235 l 1
 1475 687 l 1
 1557 687 l 1
 1546 636 l 1
 1323 636 l 1
 1333 687 l 1
 1415 687 l 1
 1515 1159 l 1
 1175 664 l 1
210 1286 m 1
 784 1286 l 1
 739 1068 l 1
 679 1068 l 1
 714 1231 l 1
 514 1231 l 1
 399 686 l 1
 490 686 l 1
 478 636 l 1
 238 636 l 1
 248 686 l 1
 338 686 l 1
 453 1231 l 1
 257 1231 l 1
 222 1068 l 1
 164 1068 l 1
 210 1286 l 1
EndSplineSet
EndChar

StartChar: two
Encoding: 18 50 279
Width: 991
VWidth: 0
GlyphClass: 2
Flags: HW
LayerCount: 2
Fore
SplineSet
680 0 m 1
 -59 0 l 1
 -42 84 l 1
 101 200 799 685 854 947 c 0
 860 974 862 1001 862 1026 c 0
 862 1158 775 1231 622 1231 c 0
 412 1231 240 1078 240 836 c 0
 240 827 240 819 241 810 c 1
 152 810 l 1
 152 1118 376 1306 641 1306 c 0
 832 1306 954 1208 954 1037 c 0
 954 1009 949 978 943 947 c 0
 883 663 253 225 73 82 c 1
 697 82 l 1
 680 0 l 1
EndSplineSet
EndChar

StartChar: twosuperior
Encoding: 112 178 280
Width: 860
VWidth: 0
GlyphClass: 2
Flags: HW
LayerCount: 2
Fore
SplineSet
677 713 m 0
 677 798 619 845 518 845 c 0
 364 845 269 734 269 557 c 1
 188 557 l 1
 188 780 348 917 537 917 c 0
 674 917 759 848 759 727 c 0
 759 707 757 684 752 661 c 0
 711 467 321 199 172 74 c 1
 586 74 l 1
 569 3 l 1
 43 3 l 1
 57 72 l 1
 160 157 677 488 677 713 c 0
EndSplineSet
EndChar

StartChar: u
Encoding: 85 117 281
Width: 1096
VWidth: 0
GlyphClass: 2
Flags: HW
PickledData: "(dp1
S'com.typemytype.robofont.layerData'
p2
(dp3
S'b'
(dp4
S'name'
p5
S'u'
sS'lib'
p6
(dp7
sS'unicodes'
p8
(tsS'width'
p9
F1056.5264058570601
sS'contours'
p10
((dp11
S'points'
p12
((dp13
S'segmentType'
p14
S'line'
p15
sS'x'
F882.4593342095128
sS'smooth'
p16
I00
sS'y'
F828
s(dp17
g14
S'line'
p18
sS'x'
F790.4593342095128
sg16
I01
sS'y'
F363
s(dp19
S'y'
F145
sS'x'
F747.4593342095128
sg16
I00
s(dp20
S'y'
F43
sS'x'
F583.4593342095128
sg16
I00
s(dp21
g14
S'curve'
p22
sS'x'
F475.4593342095128
sg16
I01
sS'y'
F43
s(dp23
S'y'
F43
sS'x'
F350.4593342095128
sg16
I00
s(dp24
S'y'
F120
sS'x'
F306.4593342095128
sg16
I00
s(dp25
g14
S'curve'
p26
sS'x'
F340.4593342095128
sg16
I01
sS'y'
F285
s(dp27
S'y'
F285
sS'x'
F340.4593342095128
sg16
I00
s(dp28
S'y'
F828
sS'x'
F442.4593342095128
sg16
I00
s(dp29
g14
S'curve'
p30
sS'x'
F442.4593342095128
sg16
I00
sS'y'
F828
s(dp31
g14
S'line'
p32
sS'x'
F200.45933420951278
sg16
I00
sS'y'
F828
s(dp33
g14
S'line'
p34
sS'x'
F186.45933420951278
sg16
I00
sS'y'
F770
s(dp35
g14
S'line'
p36
sS'x'
F349.4593342095128
sg16
I00
sS'y'
F770
s(dp37
g14
S'line'
p38
sS'x'
F255.45933420951278
sg16
I01
sS'y'
F286
s(dp39
S'y'
F89
sS'x'
F216.45933420951278
sg16
I00
s(dp40
S'y'
F-19
sS'x'
F286.4593342095128
sg16
I00
s(dp41
g14
S'curve'
p42
sS'x'
F462.4593342095128
sg16
I01
sS'y'
F-19
s(dp43
S'y'
F-19
sS'x'
F583.4593342095128
sg16
I00
s(dp44
S'y'
F41
sS'x'
F677.4593342095128
sg16
I00
s(dp45
g14
S'curve'
p46
sS'x'
F750.4593342095128
sg16
I00
sS'y'
F143
s(dp47
S'y'
F55
sS'x'
F750.4593342095128
sg16
I00
s(dp48
S'y'
F-8
sS'x'
F793.4593342095128
sg16
I00
s(dp49
g14
S'curve'
p50
sS'x'
F879.4593342095128
sg16
I01
sS'y'
F-8
s(dp51
S'y'
F-8
sS'x'
F979.4593342095128
sg16
I00
s(dp52
S'y'
F64
sS'x'
F1044.4593342095127
sg16
I00
s(dp53
g14
S'curve'
p54
sS'x'
F1072.4593342095127
sg16
I00
sS'y'
F188
s(dp55
g14
S'line'
p56
sS'x'
F1013.4593342095128
sg16
I00
sS'y'
F210
s(dp57
S'y'
F134
sS'x'
F994.4593342095128
sg16
I00
s(dp58
S'y'
F52
sS'x'
F956.4593342095128
sg16
I00
s(dp59
g14
S'curve'
p60
sS'x'
F889.4593342095128
sg16
I01
sS'y'
F52
s(dp61
S'y'
F52
sS'x'
F801.4593342095128
sg16
I00
s(dp62
S'y'
F165
sS'x'
F835.4593342095128
sg16
I00
s(dp63
g14
S'curve'
p64
sS'x'
F842.4593342095128
sg16
I01
sS'y'
F202
s(dp65
g14
S'line'
p66
sS'x'
F964.4593342095128
sg16
I00
sS'y'
F828
stp67
stp68
sS'components'
p69
(tsS'anchors'
p70
(tsss."
AnchorPoint: "bot" 843 -6 basechar 0
AnchorPoint: "top" 603 828 basechar 0
LayerCount: 2
Fore
SplineSet
842 828 m 1
 750 363 l 2
 707 147.043945312 543 46 435 46 c 0
 337 46 289 92.041015625 289 190 c 0
 289 218 293 249 300 285 c 1
 402 828 l 1
 160 828 l 1
 146 770 l 1
 309 770 l 1
 215 286 l 2
 208 251 205 218 205 189 c 0
 205 54.6494140625 278 -18 422 -18 c 0
 543 -18 651 40.677734375 720 164 c 1
 718 146.907226562 717 129.813476562 717 115 c 0
 717 30 765 -14 839 -14 c 0
 939 -14 995 59.173828125 1032 188 c 1
 973 210 l 1
 954 131.114257812 916 46 849 46 c 0
 802 46 790 78 790 114 c 0
 790 147.268554688 799 183.755859375 802 202 c 2
 924 828 l 1
 842 828 l 1
EndSplineSet
EndChar

StartChar: underscore
Encoding: 63 95 288
Width: 1073
VWidth: 0
GlyphClass: 2
Flags: HW
LayerCount: 2
Fore
SplineSet
876 0 m 1
 861 -64 l 1
 98 -64 l 1
 115 0 l 1
 876 0 l 1
EndSplineSet
EndChar

StartChar: uni00AD
Encoding: 107 173 295
Width: 709
VWidth: 0
GlyphClass: 2
Flags: HW
LayerCount: 2
Fore
SplineSet
174 1101 m 1
 190 1168 l 1
 596 1168 l 1
 581 1101 l 1
 174 1101 l 1
EndSplineSet
EndChar

StartChar: uni030F
Encoding: 370 783 296
Width: 633
VWidth: 0
GlyphClass: 2
Flags: HW
AnchorPoint: "top" 364 830 mark 0
LayerCount: 2
Fore
SplineSet
477 1025 m 1
 445 1025 l 1
 340 1284 l 1
 477 1284 l 1
 477 1025 l 1
259 1025 m 1
 226 1025 l 1
 121 1284 l 1
 259 1284 l 1
 259 1025 l 1
EndSplineSet
EndChar

StartChar: uni0311
Encoding: 371 785 297
Width: 897
VWidth: 0
GlyphClass: 2
Flags: HW
AnchorPoint: "top" 444 828 mark 0
LayerCount: 2
Fore
SplineSet
323 999 m 1
 242 999 l 1
 270.305407189 1110.27546734 400.106394503 1190.75683594 511.609375 1190.75683594 c 0
 621.215647504 1190.75683594 716 1136.10574334 716 999 c 1
 644 999 l 1
 644 1087.31289543 582.215932116 1121.01953125 510.145507812 1121.01953125 c 0
 431.373615812 1121.01953125 358.198344363 1078.69819262 323 999 c 1
EndSplineSet
EndChar

StartChar: uniFB00
Encoding: 421 64256 298
Width: 1085
VWidth: 0
GlyphClass: 3
Flags: HW
LayerCount: 2
Fore
SplineSet
1246 1209 m 1
 1199 1159 l 1
 1174 1190 1140 1206 1102 1206 c 0
 1025 1206 942 1147 925 1071 c 2
 873 828 l 1
 1065 828 l 1
 1051 770 l 1
 861 770 l 1
 713 62 l 1
 912 62 l 1
 899 0 l 1
 498 0 l 1
 512 62 l 1
 630 62 l 1
 778 770 l 1
 358 770 l 1
 210 62 l 1
 347 62 l 1
 334 0 l 1
 -57 0 l 1
 -43 62 l 1
 128 62 l 1
 276 770 l 1
 98 770 l 1
 114 828 l 1
 289 828 l 1
 339 1069 l 1
 361 1181 484 1267 600 1267 c 0
 652 1267 702 1251 744 1209 c 1
 697 1159 l 1
 671 1190 637 1206 600 1206 c 0
 523 1206 440 1147 423 1071 c 2
 371 828 l 1
 791 828 l 1
 841 1069 l 2
 864 1181 985 1267 1102 1267 c 0
 1154 1267 1204 1251 1246 1209 c 1
EndSplineSet
Ligature2: "ligaStandardLigatureslookup3 subtable" f f
Ligature2: "ligaStandardLigatureslookup3 subtable" f f
EndChar

StartChar: uniFB01
Encoding: 422 64257 299
Width: 1059
VWidth: 0
GlyphClass: 3
Flags: HW
LayerCount: 2
Fore
SplineSet
683 208 m 2
 803 766 l 1
 351 766 l 1
 201 62 l 1
 400 62 l 1
 388 0 l 1
 -55 0 l 1
 -43 62 l 1
 119 62 l 1
 268 766 l 1
 107 766 l 1
 121 828 l 1
 283 828 l 1
 313 976 l 1
 352 1159 554 1266 725 1266 c 0
 841 1266 967 1216 967 1107 c 0
 967 1041 928 1014 891 1014 c 0
 856 1014 822 1038 822 1079 c 0
 822 1109 842 1133 880 1143 c 1
 839 1184 782 1201 719 1201 c 0
 580 1201 420 1103 396 978 c 1
 364 828 l 1
 898 828 l 1
 766 210 l 2
 762 190 756 159 756 132 c 0
 756 90 769 52 821 52 c 0
 888 52 921 135 946 213 c 1
 999 192 l 1
 966 65 909 -9 811 -9 c 0
 715 -9 675 64 675 146 c 0
 675 166 678 187 683 208 c 2
EndSplineSet
Ligature2: "ligaStandardLigatureslookup3 subtable" f i
Ligature2: "ligaStandardLigatureslookup3 subtable" f i
EndChar

StartChar: uniFB02
Encoding: 423 64258 300
Width: 1126
VWidth: 0
GlyphClass: 3
Flags: HW
LayerCount: 2
Fore
SplineSet
714 208 m 2
 919 1168 l 1
 919 1210 854 1238 756 1238 c 0
 612 1238 437 1168 402 1004 c 2
 365 828 l 1
 577 828 l 1
 564 769 l 1
 353 769 l 1
 201 62 l 1
 400 62 l 1
 388 0 l 1
 -55 0 l 1
 -43 62 l 1
 119 62 l 1
 271 769 l 1
 109 769 l 1
 123 828 l 1
 284 828 l 1
 318 1001 l 1
 361 1210 587 1304 771 1304 c 0
 898 1304 1004 1264 1004 1186 c 0
 1004 1180 1003 1175 1002 1168 c 2
 799 210 l 1
 788 185 788 156 788 129 c 0
 788 87 804 52 854 52 c 0
 921 52 955 135 978 213 c 1
 1033 192 l 1
 999 65 942 -9 844 -9 c 0
 751 -9 707 56 707 143 c 0
 707 163 709 187 714 208 c 2
EndSplineSet
Ligature2: "ligaStandardLigatureslookup3 subtable" f l
Ligature2: "ligaStandardLigatureslookup3 subtable" f l
EndChar

StartChar: v
Encoding: 86 118 303
Width: 991
VWidth: 0
GlyphClass: 2
Flags: HW
PickledData: "(dp1
S'com.typemytype.robofont.layerData'
p2
(dp3
s."
LayerCount: 2
Fore
SplineSet
278 771 m 1
 128 771 l 1
 139 828 l 1
 348 828 l 1
 442 60 l 1
 680 427 l 2
 789 594 817 688 817 752 c 0
 817 790 808 813 800 828 c 1
 882 828 l 1
 895 815 905 764 905 738 c 0
 905 651 847 551 735 385 c 2
 490 21 l 1
 469 -7 436 -19 418 -19 c 0
 394 -19 377 -3 374 23 c 2
 278 771 l 1
EndSplineSet
EndChar

StartChar: w
Encoding: 87 119 304
Width: 1453
VWidth: 0
GlyphClass: 2
Flags: HW
PickledData: "(dp1
S'com.typemytype.robofont.layerData'
p2
(dp3
s."
AnchorPoint: "top" 843 828 basechar 0
LayerCount: 2
Fore
SplineSet
264 771 m 1
 113 771 l 1
 125 828 l 1
 334 828 l 1
 387 60 l 1
 812 828 l 1
 862 828 l 1
 924 60 l 1
 1163 457 l 1
 1224 554 1280 667 1280 774 c 0
 1280 793 1276 811 1271 828 c 1
 1349 828 l 1
 1349 828 1372 782 1372 760 c 0
 1372 673 1324 585 1218 415 c 2
 972 21 l 1
 950 -7 918 -19 899 -19 c 0
 876 -19 857 -3 855 23 c 2
 800 660 l 1
 434 21 l 1
 413 -7 380 -19 362 -19 c 0
 339 -19 319 -3 318 23 c 2
 264 771 l 1
EndSplineSet
EndChar

StartChar: x
Encoding: 88 120 305
Width: 1099
VWidth: 0
GlyphClass: 2
Flags: HW
PickledData: "(dp1
S'com.typemytype.robofont.layerData'
p2
(dp3
s."
LayerCount: 2
Fore
SplineSet
494 724 m 1
 577 504 l 1
 735 755 l 2
 768 806 820 846 879 846 c 0
 920 846 966 827 1011 778 c 1
 964 721 l 1
 936 758 908 778 878 778 c 0
 846 778 813 752 778 698 c 2
 607 428 l 1
 734 106 l 2
 753.6953125 56.0625 776 46 803 46 c 0
 846 46 890 92.1064453125 907 171 c 1
 967 159 l 1
 959 47.103515625 872 -18 793 -18 c 0
 740 -18 693 8 669 69 c 2
 557 353 l 1
 371 69 l 2
 337 17.4072265625 280 -18 226 -18 c 0
 185 -18 139 1.279296875 94 51 c 1
 140 108 l 1
 170 69.3330078125 197 50 227 50 c 0
 259 50 293 70.2705078125 329 125 c 2
 527 427 l 1
 430 679 l 1
 402 746 374 778 336 778 c 0
 308 778 282 767 251 740 c 1
 220 807 l 1
 266 835 308 846 346 846 c 0
 423 846 466 793 494 724 c 1
EndSplineSet
EndChar

StartChar: y
Encoding: 89 121 306
Width: 1069
VWidth: 0
GlyphClass: 2
Flags: HW
PickledData: "(dp1
S'com.typemytype.robofont.layerData'
p2
(dp3
s."
AnchorPoint: "top" 653 828 basechar 0
LayerCount: 2
Fore
SplineSet
725 51 m 1
 751 155 l 1
 682 45.6318359375 577 -18 457 -18 c 0
 312 -18 240 58.6318359375 240 190 c 0
 240 219 243 252 250 286 c 1
 345 770 l 1
 182 770 l 1
 196 828 l 1
 437 828 l 1
 330 283 l 2
 324 253 321 225 321 198 c 0
 321 110.72265625 358 46 469 46 c 0
 577 46 740 147.043945312 784 363 c 2
 876 828 l 1
 960 828 l 1
 806 49 l 2
 754 -212 609 -312 412 -312 c 0
 316 -312 228 -285 158 -225 c 1
 195 -174 l 1
 244 -219 319 -251 412 -251 c 0
 580 -251 670 -179 725 51 c 1
EndSplineSet
EndChar

StartChar: yen
Encoding: 99 165 309
Width: 1280
VWidth: 0
GlyphClass: 2
Flags: HW
LayerCount: 2
Fore
SplineSet
947 300 m 1
 934 236 l 1
 584 236 l 1
 547 64 l 1
 714 64 l 1
 700 0 l 1
 281 0 l 1
 294 64 l 1
 462 64 l 1
 498 236 l 1
 155 236 l 1
 168 300 l 1
 512 300 l 1
 544 451 l 1
 200 451 l 1
 214 516 l 1
 521 516 l 1
 246 1218 l 1
 82 1218 l 1
 95 1284 l 1
 517 1284 l 1
 501 1218 l 1
 338 1218 l 1
 604 528 l 1
 1157 1218 l 1
 991 1218 l 1
 1006 1284 l 1
 1426 1284 l 1
 1411 1218 l 1
 1249 1218 l 1
 681 516 l 1
 992 516 l 1
 978 451 l 1
 630 451 l 1
 597 300 l 1
 947 300 l 1
EndSplineSet
EndChar

StartChar: z
Encoding: 90 122 310
Width: 923
VWidth: 0
GlyphClass: 2
Flags: HW
PickledData: "(dp1
S'com.typemytype.robofont.layerData'
p2
(dp3
s."
AnchorPoint: "top" 603 828 basechar 0
LayerCount: 2
Fore
SplineSet
706 0 m 1
 157 0 l 2
 143 0 139 15 137 29 c 1
 729 770 l 1
 367 770 l 1
 282 640 l 1
 213 659 l 1
 308 828 l 1
 817 828 l 1
 825 771 l 2
 826 769.993164062 251 53 251 53 c 1
 664 53 l 1
 678 79.8779296875 692 121.229492188 706 206 c 1
 766 184 l 1
 754 91 738 33 706 0 c 1
EndSplineSet
EndChar

StartChar: zero
Encoding: 16 48 314
Width: 1135
VWidth: 0
GlyphClass: 2
Flags: HW
LayerCount: 2
Fore
SplineSet
971 899 m 0
 971 1109 886 1230 687 1230 c 0
 417 1230 260 1007 182 641 c 0
 160 538 150 450 150 373 c 0
 150 156 243 50 436 50 c 0
 699 50 856 243 940 641 c 0
 961 737 971 824 971 899 c 0
1028 641 m 0
 947 261 752 -23 421 -23 c 0
 169 -23 66 141 66 387 c 0
 66 464 76 549 95 641 c 1
 176 1012 372 1306 703 1306 c 0
 954 1306 1057 1137 1057 892 c 0
 1057 816 1046 730 1028 641 c 0
EndSplineSet
EndChar

StartChar: eng
Encoding: 265 331 361
Width: 1051
VWidth: 0
Flags: HW
AnchorPoint: "top" 723 828 basechar 0
LayerCount: 2
Fore
SplineSet
195 0 m 1
 346 770 l 1
 183 770 l 1
 196 828 l 1
 439 828 l 1
 397 669 l 1
 472 782 581 851 710 851 c 0
 861 851 925 759 925 637 c 0
 925 608 921 577 914 545 c 1
 833 202 l 2
 828 183 822 153 822 125 c 0
 822 87 834 52 880 52 c 0
 947 52 985 134 1005 210 c 1
 1063 188 l 1
 1036 64 970 -9 870 -9 c 0
 780 -9 743 60 743 138 c 0
 743 159 745 180 750 201 c 2
 835 550 l 2
 842 578 846 607 846 633 c 0
 846 720 805 789 697 789 c 0
 588 789 415 688 372 469 c 2
 280 0 l 1
 195 0 l 1
EndSplineSet
EndChar

StartChar: Eng
Encoding: 264 330 362
Width: 1469
VWidth: 0
Flags: HW
AnchorPoint: "top" 903 1311 basechar 0
LayerCount: 2
Fore
SplineSet
1141 1249 m 1
 1152 1312 l 1
 1619 1312 l 1
 1607 1249 l 1
 1410 1249 l 1
 1156 0 l 1
 1076 0 l 1
 522 1192 l 1
 285 62 l 1
 496 62 l 1
 484 0 l 1
 14 0 l 1
 25 62 l 1
 209 62 l 1
 455 1249 l 1
 252 1249 l 1
 263 1312 l 1
 549 1312 l 1
 1101 126 l 1
 1324 1249 l 1
 1141 1249 l 1
EndSplineSet
EndChar

StartChar: uni00B5
Encoding: 115 181 431
Width: 1096
VWidth: 0
Flags: HW
LayerCount: 2
Fore
SplineSet
836 60 m 1
 1016 60 l 1
 1004 0 l 1
 754 0 l 1
 769 108 l 1
 613 25 523 -14 393 -14 c 0
 307 -14 250 7 214 42 c 1
 154 -242 l 1
 70 -242 l 1
 294 808 l 1
 111 808 l 1
 124 870 l 1
 389 870 l 1
 252 216 l 2
 249 203 249 190 249 176 c 0
 249 105 285 55 415 55 c 0
 550 55 660 114 779 180 c 1
 912 808 l 1
 731 808 l 1
 744 870 l 1
 1008 870 l 1
 836 60 l 1
EndSplineSet
EndChar
